<?xml version="1.0" standalone="no"?>
<!DOCTYPE svg PUBLIC "-//W3C//DTD SVG 1.1//EN" "http://www.w3.org/Graphics/SVG/1.1/DTD/svg11.dtd" >
<svg xmlns="http://www.w3.org/2000/svg">
<metadata>
Created by FontPrep 20130207 at Sun Mar 30 14:49:53 2014
 By Zach Wise
Copyright (c) Typographer Mediengestaltung, 2000. All rights reserved. Digitized and hinted by Dieter Steffmann, Kreuztal.
</metadata>
<defs>
<font id="df72338b25fb6276e2467cdc9f14d38d" horiz-adv-x='1024' >
  <font-face 
    font-family="English Towne"
    font-weight="500"
    font-stretch="normal"
    units-per-em="2048"
    panose-1="2 0 6 6 2 0 0 2 0 3"
    ascent="1638"
    descent="-410"
    x-height="850"
    cap-height="1274"
    bbox="-299 -492 2908 1794"
    underline-thickness="102"
    underline-position="-112"
    unicode-range="U+000D-E002"
  />
<missing-glyph horiz-adv-x="1024" 
 />
    <glyph glyph-name=".notdef" horiz-adv-x="1024" 
 />
    <glyph glyph-name=".null" horiz-adv-x="0" 
 />
    <glyph glyph-name="nonmarkingreturn" horiz-adv-x="682" 
 />
    <glyph glyph-name="dotlessi" unicode="&#xd;" horiz-adv-x="507" 
d="M342 160q0 -12 10 -33q18 -39 84 -39q23 0 53 12l9 -14l-176 -170q-70 4 -129 51t-60 111v514q-31 2 -47 37l-29 -17l-28 39l6 13l2 -2l4 4l4 2q21 18 45 41t50 43l78 67q7 6 13 12v25q82 -119 148 -119q12 0 65 27v-23q-4 -12 -4 -28q-31 -91 -98 -119v-434z" />
    <glyph glyph-name="fraction" horiz-adv-x="606" 
d="M160 -80q-79 0 -140 -33q6 34 25 72v4l2 4q0 3 4 17l369 1124q4 27 5 35t5 24v13h16q0 2 7 2l4 -2h2q11 -4 33 -4t96 12l8 -14q-2 -2 -6 -13l-6 -6l-4 -8v-2l-2 -2v-2q-8 -6 -19 -35l-373 -1151l2 -2q0 -16 11 -33h-39z" />
    <glyph glyph-name="fi" horiz-adv-x="978" 
d="M133 817h2l-2 205l-14 33v20q12 -4 15 -4h28q172 0 332 193q8 -8 36 -43q66 -70 134 -70l4 2h26q-16 -53 -67 -95t-129 -42t-121 45l-4 -4l-4 -2q-6 -6 -19 -8l-2 -3v-231l2 -2q131 0 146 8q24 0 49 6v-18l-2 -2v-6l-4 -4v-11q-6 -41 -7 -82v-8q148 123 164 142v24
q86 -119 150 -119q9 0 67 27v-23q-4 -10 -6 -28q-33 -94 -98 -121v-436q0 -12 10 -33q18 -39 84 -39q25 0 55 12l9 -14l-179 -170q-70 0 -131 50t-61 114v514q-29 2 -49 37l-27 -17l-31 41l3 4l-60 9l-6 2h-2q0 2 -12 2h-31q-16 0 -33 4v-508q12 -6 35 -6q16 -10 31 -10
q4 -4 55 -35l45 47l43 -41l-221 -211q-139 121 -256 121h-4l-4 -2q-21 0 -45 -8q29 98 108 133v524q-23 -6 -76 -6l-2 -2h-16q0 33 2 43v53l-2 6v12l-2 5v36q30 -10 94 -10zM887 1040v-18q0 -54 -46.5 -98.5t-107.5 -44.5h-18v2h-21l-4 2q-80 0 -98 61l-33 -16l-29 47
q18 16 23 19l49 24l-4 -4l117 84q57 -76 112 -76q10 4 18 5t17 5l4 4h2l2 2h2l2 2h13z" />
    <glyph glyph-name="fl" horiz-adv-x="1009" 
d="M424 670q0 2 -12 2h-31q-16 0 -33 4v-508q12 -6 35 -6q16 -10 33 -10q7 -7 53 -35l45 47l43 -41l-221 -211q-139 121 -256 121h-4l-4 -2q-21 0 -45 -8q29 98 108 133v524q-23 -6 -76 -6l-2 -2h-16q0 33 2 43v53l-2 6v12l-2 5v36q30 -10 94 -10h2l-2 205l-14 33v20
q12 -4 15 -4h28q174 0 332 191q14 -14 38 -41q63 -70 132 -70l4 2h28q-6 -19 -22 -45q68 18 190 117l13 -8q-9 -17 -26 -81t-17 -98v-874q19 -10 67 -43q-4 4 4 0q2 -4 5 -7t5 -8l7 -6l32 29l43 -53l-209 -162q-106 92 -256 127q45 74 101 102v836l-12 63q-2 4 -3 7
q-47 -31 -90 -31q-4 -2 -22 -2q-86 0 -129 45l-4 -4l-4 -2q-6 -6 -19 -8l-2 -3v-231l2 -2q131 0 146 8q24 0 49 6v-18l-2 -2v-6l-2 -4v-11q-6 -41 -6 -82v-10l2 -4v-20l12 -15h-27l-2 2l-88 13l-6 2h-2z" />
    <glyph glyph-name="Lslash" horiz-adv-x="1241" 
d="M524 340q0 6 4 31v59l-65 -41v-47q0 -31 -33 -82q-88 -141 -235 -156q47 74 49 150l-162 -102l-45 75l207 129v113l-33 18h-6q-23 0 -41.5 -14t-20.5 -37l2 -2v-14h-10l-2 -2h-8q-35 0 -64.5 34t-29.5 87q0 113 123 159q32 6 90 15v52q0 52 2 62q8 57 94 117
q76 59 133 64l2 2l4 -2h2l11 -4q-25 -74 -25 -82l-4 -430l65 43v405q0 111 172 221t287 111h8q35 0 133 -39q61 -31 84 -70l-184 -207l-53 50l35 41q-4 4 -7.5 6t-11.5 11t-19 15t-28 21q-30 15 -57 37h-6l-4 2h-13l-2 2q-70 0 -92 -39q-20 -27 -20 -41v-389l421 262l48 -74
l-469 -291v-131q0 -88 -61.5 -140t-90.5 -65v3q-10 -8 -24.5 -11.5t-29.5 -9.5t-18 -6l-37 -6h-30q57 57 65 127v10zM596 10q-219 0 -373 -69q-14 -4 -33.5 -15.5t-42.5 -21.5q89 170 280 246t378 75q123 0 215 -30v378q-35 11 -35 51t22.5 63.5t51 23.5t50 -23.5
t21.5 -62.5t-36 -56v-395q4 -4 22 -8l8 -6h-4q8 -4 10 -6v2l15 -9l29 35l57 -45l-189 -223q-227 96 -446 96zM61 1012q0 115 63.5 185.5t174.5 70.5q59 0 157 -35t123.5 -35t51.5 8q4 4 14 8l10 -8q-10 -86 -98 -141q-79 -55 -147 -55t-129 24q-13 0 -19 4t-12 6l-68 13
l-2 -2q-23 0 -30 -6q-12 0 -27 -15q-14 -4 -62 -43v21z" />
    <glyph glyph-name="lslash" horiz-adv-x="491" 
d="M127 1102q72 0 225 123l10 -8q-12 -22 -26 -87t-14 -92v-432l102 49l37 -82l-139 -63v-346q25 -15 65 -43q-4 4 4 0q2 -4 5 -7t5 -8l7 -6l32 29l41 -53l-205 -162q-102 90 -251 127q45 72 98 102v275l-92 -39l-37 82l129 59v459l-12 63q-5 16 -5 19l-6 8q0 6 -4 14v27
q16 -8 31 -8z" />
    <glyph glyph-name="Zcaron" horiz-adv-x="1071" 
d="M713 199q96 0 200 -27l58 -16l35 41l53 -35l-195 -250q-48 34 -140 61t-116 27h-10l-104 4h-23q-219 0 -426 -82l-16 53q203 180 352 598q-48 -4 -131 -16q-71 -23 -115 -29l88 220q86 -27 217 -27q78 172 267 369q-217 -88 -367 -88t-205 55l-39 -37l-43 41l197 244
q16 -18 82 -45q123 -55 262 -56q213 0 371 90l30 -39q-18 -18 -46.5 -58t-74.5 -103q-117 -195 -169 -367q24 0 86 8l88 10q19 6 39 7l4 2q17 0 39 4h18l-100 -203l-228 20q-27 -59 -104 -200q-104 -159 -223 -256q215 80 389 80zM788 1769q64 -75 111 -122l-2 -13
q-94 -74 -283 -276q-181 196 -292 282q50 50 118 127q82 -88 174 -168q92 76 174 170z" />
    <glyph glyph-name="zcaron" horiz-adv-x="753" 
d="M525 485h28l86 9l2 2h10l2 2h27q-61 -80 -62 -150l3 -2v-22l-54 4q-27 4 -64.5 6t-90.5 8l-84 -125q108 47 172 47t118 -53t54 -128t-43 -138q-18 -29 -49 -67t-32 -40t-5 -6v2l-37 -44q-10 -11 -14 -19l-150 -179q-106 94 -178 95q-43 0 -94 -35h2q-13 -13 -25 -19h-2
l-18 -20q14 98 84.5 178t175.5 80q70 0 129 -55q59 66 59 153v4l-2 2v11q0 36 -43 78t-80 42t-94 -38q-53 -41 -80 -76l-41 -64l-63 43l247 367h-47q-106 0 -157 -19q55 70 55 193q49 -31 152 -31h73q4 2 21 2l110 166q-100 -63 -226 -63t-251 104l191 199
q100 -131 225 -131q98 0 176 78v-2l37 43l67 -31l-239 -359q8 -2 19 -2zM592 1350q99 -116 110 -127l-2 -13q-94 -70 -280 -272q-193 209 -289 279q41 41 115 133q104 -118 174 -172q65 49 172 172z" />
    <glyph glyph-name="space" unicode=" " horiz-adv-x="722" 
 />
    <glyph glyph-name="exclam" unicode="!" horiz-adv-x="468" 
d="M449 1092l10 -9q0 -60 -37 -99.5t-66 -68.5l-59 -641h-59l-88 648q-10 8 -14 10l-62 33l-21 20q-13 19 -39 43q86 0 228 156v20q94 -125 147 -125q7 1 60 13zM424 70l-158 -158l-160 158l160 166z" />
    <glyph glyph-name="quotedbl" unicode="&#x22;" horiz-adv-x="831" 
d="M770 1098q0 -150 -242 -242l-26 29q70 51 69 100q0 66 -114 115q100 72 180 170q133 -86 133 -172zM406 1098q0 -150 -242 -242l-23 31q68 47 68 98q0 66 -115 115q109 84 182 170q130 -86 130 -172z" />
    <glyph glyph-name="numbersign" unicode="#" horiz-adv-x="964" 
d="M484 377h-31q-43 0 -93 -4q-2 -6 -2 -12.5t-28 -124.5t-49 -240q-32 4 -72 4t-74 -4h-18q88 248 123 375q-92 0 -160 -6q35 80 39 145q42 -10 153 -10l41 159q-98 0 -159 -6q26 77 30 146q41 -8 166 -8q4 16 6 31.5t30 138.5t44 208q41 -8 77 -8t87 8q-91 -252 -125 -383
h10q18 -2 25 -2h54q48 0 73 2q49 212 80 383q50 -8 83 -8t83 8q-81 -204 -125 -378q97 0 157 8q-31 -82 -35 -146q-43 6 -155 6l-43 -159q100 0 168 10q-31 -76 -35 -145q-53 6 -164 6q-74 -328 -82 -375q-31 4 -71 4t-76 -4h-19q94 251 127 377q-19 4 -40 4zM487 666
q-21 0 -51 -4l-43 -166h74q16 0 38.5 -1t49.5 1l45 166q-4 2 -9 2l-49 2h-55z" />
    <glyph glyph-name="dollar" unicode="$" horiz-adv-x="831" 
d="M709 41q-86 0 -228 -41v-123h-82v84l-55 -43l-33 33q-82 78 -182 78q-51 0 -106 -31q33 121 149 162q4 2 22.5 4t53.5 14q25 0 26 2h21q63 0 104 -16v362q-142 32 -252 49q-33 0 -65 9l8 6l-6 6h-4q1 5 4 8v-2q23 29 22 62v282q-9 13 -12 29h-2v12q-2 4 -2 9t-16 24h59
q2 -2 23 -2q129 0 243 49v123h82v-96q14 0 45 24q17 8 47 33q72 -100 160 -100q9 0 29 7t31 7q-41 -184 -254 -184q-31 0 -58 8v-307q73 -29 338 -76q-16 -16 -19 -33t-14 -31h5l2 -340q-1 -10 30 -67h-37l-4 2q-45 0 -57 4h-16zM506 94l37 12h6l4 3h12l2 2v372l-86 23v-383
zM344 952h-2l-4 -2h-10v-327l71 -19v346l-16 17l-2 -2h-4q-8 -4 -12 -7h-3q-6 -6 -18 -6z" />
    <glyph glyph-name="percent" unicode="%" horiz-adv-x="1245" 
d="M528 1106v-23q0 -23 -16 -43t-37 -24v-447l17 -32v-11l2 -4v-22q-35 18 -107 18h-14l-58 -8q-61 -10 -120 -59q-41 41 -105 57h-6l-4 2h-4v-2h-17q-8 -4 -12 -4l-2 -2h-14v16q0 16 20.5 42t38.5 36v440q-16 10 -16 43v6l2 2v25l16 -18h4l39 -9h8q147 0 232 84
q63 -74 102 -73h2l4 2l21 4h4l2 2h4l2 2h12zM788 76v444q-16 12 -16 37v6l2 2v25l19 -19h4l2 -2h10l4 -2h4q2 -2 19 -2l4 -2h6q141 0 229 88q22 -22 35 -39v2q4 -4 14 -19t41 -20l2 -2h7q8 0 24 5h2l4 4h6l4 4h15v-25q0 -20 -17.5 -40.5t-37.5 -24.5v-443l8 -18l4 -4
q2 -4 2 -13l2 -4v-4l2 -2v-22q-47 14 -72 14h-88q-41 0 -83 -26.5t-52 -36.5q-4 2 -3 3t-6 6t-25.5 16t-35.5 24q-35 12 -51 12h-8v-2q-6 -2 -11.5 -2t-21.5 -8q-8 8 -7 18t22 43q20 12 36 27h-2q2 2 4 2zM1010 1110v6l-2 2v19l239 28l-16 -14q-4 -4 -11.5 -8t-19.5 -17
l-4 -2v2q-102 -79 -172 -161l-680 -846v2q-59 -72 -63 -105q2 -2 20 -16l-244 -41q136 113 189 182l733 924q33 33 35 43l-2 2h-2zM342 1008q-16 0 -42 17t-34 26h-12l-4 -2l-21 -2q-4 -2 -10 -3v-432q30 -15 90 -53l2 2h8l5 2h16l2 2v443zM1040 489q-37 0 -75 43h-4l-3 -2
h-4l-2 -2h-9q-5 0 -25 -4v-432q74 -45 92 -51h6l2 2h8l2 2h10l2 2v442z" />
    <glyph glyph-name="ampersand" unicode="&#x26;" horiz-adv-x="1220" 
d="M1120 594q27 0 76 18l12 -8q-4 -88 -68.5 -148.5t-171.5 -60.5q-62 0 -106 35l-53 -55q123 -291 260 -291q45 0 127 82v-19l2 -2v-8l2 -4v-6l2 -4v-21q0 -106 -131 -182q-25 -10 -42 -17t-30 -7l-4 -2h-14l-4 -3h-12q-61 0 -113 26q-114 57 -219 273l-299 -296
q-14 6 -17.5 13t-5.5 7t-4 4h2q-9 15 -47 51l-63 64q-64 64 -174 170l397 393q-26 32 -53 80l-23 37q-76 104 -174 184v14q124 64 332 248q103 91 133 117q81 -116 278 -324l-274 -266q36 -63 78 -137l49 -100l162 172q6 0 28 24t32.5 43t21.5 35q18 -129 108 -129zM553 354
q-10 20 -25 56t-61 108l-207 -203q2 -2 5 -4t17 -19t44 -32q53 -53 127 -143l139 153q-6 12 -11 26t-12.5 27t-10.5 22t-4 10zM586 762q2 -4 2 -6l102 104q-42 31 -112 125q-14 11 -30 35t-23 33.5t-11 17.5l-104 -88l79 -82q41 -49 72 -102zM272 305v2l4 -4q-2 0 -4 2z" />
    <glyph glyph-name="quotesingle" unicode="'" horiz-adv-x="335" 
d="M66 838v2h-19q78 61 78 100t-39 78h-2l-10 10h2l-49 31v12l149 156q145 -27 146 -168v-6l-3 -6v-17q-2 -2 -4 -18t-24 -58q-72 -117 -213 -116h-12z" />
    <glyph glyph-name="parenleft" unicode="(" horiz-adv-x="438" 
d="M25 618q0 118 32.5 234.5t68.5 198.5t40 93t9 22t10 22.5t12 23.5q16 49 16 125l203 -192q-8 -28 -31 -51v2q-182 -291 -182 -469l2 -2v-29l-2 -4q0 -146 59 -307t156 -267l10 -6l-96 -164q0 56 -23 125q-12 27 -44 69q-146 191 -193 333q-47 125 -47 243z" />
    <glyph glyph-name="parenright" unicode=")" horiz-adv-x="436" 
d="M250 544v52q0 186 -103 389q-66 132 -122 193l84 149l12 -4q0 -9 -1 -29t11 -59t53 -92t61.5 -82t26.5 -37q154 -231 154 -467t-156 -557q-30 -61 -30 -141l-205 190q25 25 81 121q134 230 134 374z" />
    <glyph glyph-name="asterisk" unicode="*" horiz-adv-x="692" 
d="M555 1130q2 0 45 25h-2l6 6h12v-22l-2 -2q0 -51 9 -66v-2l4 -8v-2q14 -44 67 -105l-32 9v-2h-19l-2 -3h-20l-3 -2q-18 0 -96 -26l-2 -2l-6 -13v-2l4 -4v-4l60 -69q0 -5 10 -15q16 -8 24 -16l4 -2l5 -4h6l14 -15q-111 -39 -176 -137l-10 21v6q-9 28 -72 114h-8l-6 5
q-8 0 -11 4h-4l-4 2q-4 -4 -10 -4l-2 -2h-2q-4 -2 -6 -5h-2q-2 -2 -2 -4l-2 -2v2q-12 -16 -28.5 -36.5t-33.5 -42.5q-5 -16 -14 -39l-2 -2v-25q-69 105 -189 149q44 22 70 41q18 18 63 76v19l-84 34l-2 -2h-18l-2 2h-23l-4 3q-18 0 -37 6q14 12 50 73q0 6 8 15v4l2 2v6l2 2
v10q0 13 8 37v64q10 -12 13.5 -18t13.5 -11l4 -4h2q18 -18 33 -21l94 -24v-2q10 4 10 10v98l-2 6q0 13 -7 29t-7 39q66 -27 100 -27l2 2h21v-2q21 0 94 25q-2 -18 -2 -20q-12 -18 -13 -50v-98q0 -8 13 -12h2q7 3 88 30h6zM461 969q0 100 -115 108v2q-102 -18 -102 -110
q0 -47 31.5 -79t77.5 -32t77 32t31 79zM420 969q0 -25 -20.5 -46.5t-45.5 -21.5q-68 0 -67 68q0 55 59 65v8q74 -22 74 -73z" />
    <glyph glyph-name="plus" unicode="+" horiz-adv-x="1196" 
d="M1124 438h-460v-456h-117v456h-461v113h461v457h117v-457h460v-113z" />
    <glyph glyph-name="comma" unicode="," horiz-adv-x="339" 
d="M322 74q0 -39 -27 -80q-78 -121 -215 -121h-33q78 61 78 107t-98 106v12l149 154q145 -14 146 -166v-12z" />
    <glyph glyph-name="hyphen" unicode="-" horiz-adv-x="460" 
d="M389 317v-14q2 -4 2 -12h2v-6l-4 6v-15q-78 13 -158 13h-147q-14 -2 -24 -2h-35q55 111 55 166q2 12 2 14t2 6l16 -2l-4 2q20 -4 66 -4h135l143 10l4 -10q-55 -80 -55 -152z" />
    <glyph glyph-name="period" unicode="." horiz-adv-x="342" 
d="M334 66l-154 -152l-157 152l157 159z" />
    <glyph glyph-name="slash" unicode="/" horiz-adv-x="606" 
d="M160 -80q-79 0 -140 -33q6 34 25 72v4l2 4q0 3 4 17l369 1124q4 27 5 35t5 24v13h16q0 2 7 2l4 -2h2q11 -4 33 -4t96 12l8 -14q-2 -2 -6 -13l-6 -6l-4 -8v-2l-2 -2v-2q-8 -6 -19 -35l-373 -1151l2 -2q0 -16 11 -33h-39z" />
    <glyph glyph-name="zero" unicode="0" horiz-adv-x="913" 
d="M31 12q0 35 32.5 78t71.5 66v784q-27 27 -26 68v8l2 4v27q37 -29 131 -29q248 0 393 147q117 -133 180 -133q27 0 84 23v-31q0 -43 -29.5 -79t-66.5 -40v-794q26 -43 26 -59.5t5 -26.5v-25q-109 31 -170 31q-213 0 -347 -119q-76 66 -116 84l-78 16h-12l-60 -10
q-4 0 -12 -4l-8 8v6zM530 88q23 0 48 10h4v793q-66 2 -144 82q-23 -14 -88 -15v-782l2 -2h6l2 -2q18 -4 82 -35q31 -18 80 -49h8z" />
    <glyph glyph-name="one" unicode="1" horiz-adv-x="641" 
d="M174 6q-78 0 -94 -22l-57 30q46 59 65 78q57 68 137 92v693q0 29 -24.5 60.5t-47.5 38.5t-81 17v62q28 -4 34 -4t23 6q143 39 217 117q96 -59 96 -261v-718q41 -14 101 -58l43 47l51 -55l-231 -225q-86 102 -232 102z" />
    <glyph glyph-name="two" unicode="2" horiz-adv-x="841" 
d="M301 555q12 0 74 25q127 49 127 102v293l-17 4q-78 -105 -183 -105t-175 46q-96 59 -96 174q45 -31 108 -31q109 0 201 117q46 -76 154 -113t208 -37h5l4 2h30l2 2h27q-45 -45 -45 -84v-286q0 -12 31 -74q-128 -12 -320 -78t-241 -125q-18 -23 -23 -49h2v-164l-2 -27
l-2 -32q-2 -11 -2 -21v-16q135 147 301 147q137 0 270 -98l37 41l58 -51l-199 -215q-133 108 -298 108t-298 -104q11 100 16 289l2 131q7 146 98 177.5t115 41.5l23 8l2 2h6z" />
    <glyph glyph-name="three" unicode="3" horiz-adv-x="851" 
d="M205 1065q82 0 172 109q143 -145 305 -146q63 0 152 45q-37 -72 -37 -115v-260q0 -47 37 -84l-160 -26q-92 -18 -117 -35q37 -27 160 -27q2 -2 76 -2l2 2h39q-27 -51 -27 -77v-322q0 -41 31 -102l-11 -13q-141 46 -331 -28q-62 -31 -105 -86q-90 100 -179 100t-187 -70
q39 168 225 230q51 18 127 18h10q26 -4 37.5 -5t30.5 -5q82 -31 129 -64v340q-6 2 -19 15h2q-87 44 -151 45h-6q-14 0 -109 -47v186q45 -45 111 -45t161 66v301l-14 2q-59 -68 -149 -68q-4 -2 -23 -2q-131 0 -211 72q-53 49 -53 106v8l2 2v29q33 -43 59 -43q12 -4 21 -4z
" />
    <glyph glyph-name="four" unicode="4" horiz-adv-x="937" 
d="M498 8q-51 0 -121 -18q34 105 172 174h4l2 2v102l-512 2q8 17 16 37v4l2 2v11l5 4v139l-3 4v4q-10 31 -38 70q183 155 313 289q53 47 176 182l111 137v23q90 -127 123 -138q27 -6 51 -6t55 10v-22q-2 -2 -2 -8q-16 -35 -31 -56q-16 -20 -53 -45h2l-2 -2v-534h59
q25 0 97 63v-243q-30 24 -101 67l2 -2q-14 4 -28.5 5t-28.5 3v-98q50 -34 61 -43l43 49l56 -53l-199 -211q-102 96 -231 96zM272 375h283v547l-283 -277v-270z" />
    <glyph glyph-name="five" unicode="5" horiz-adv-x="874" 
d="M662 53q-174 0 -302 -143q-112 106 -192 106t-141 -43q37 207 282 207h15l4 -2h4q88 0 186 -61l31 12v397l-2 2q-89 37 -60 27q-16 14 -18 15l2 -5q-17 6 -55 45l-168 -73l-76 -91l-86 129l76 31v531h690q-4 -31 -23.5 -58t-28.5 -41t-24.5 -35.5t-27.5 -39.5
q-41 -47 -111 -48l-391 5v-281l332 154q96 -121 208 -121q13 0 64 14l10 -8q-8 -76 -98 -131v-383q0 -68 41 -125h-21q-14 0 -32 6l-39 4l-15 2q-27 0 -32 2h-2z" />
    <glyph glyph-name="six" unicode="6" horiz-adv-x="886" 
d="M711 27q-203 0 -351 -111q-139 96 -233 96q-57 0 -96 -24q0 92 102 155l-2 762q-23 54 -43 80v-2l-16 16l10 11q12 -6 51 -6l6 -3h13q162 0 423 132v2l13 2q37 -88 133 -113l2 -2h29l2 2q12 0 59 27q-2 -93 -78 -137t-162 -44q-115 0 -186 91l-43 -11v-375l174 87
q30 6 50 18t29 17t15 13t13 11v-2q2 2 8 7t20 19q72 -121 160 -120h4q4 0 55 26v-39l-2 -2v-8l-2 -2q-2 -20 -28.5 -49t-51.5 -39v-391q0 -29 11 -49h2q2 -6 2 -7l14 -49l-29 2h-6l-41 5l-20 2l-6 2h-4zM346 172q88 -39 172 -94l57 16v393q-43 8 -90 70h-2l-137 -61v-324z
" />
    <glyph glyph-name="seven" unicode="7" horiz-adv-x="888" 
d="M471 94q0 -84 16 -194q-119 88 -201 88t-171 -90q88 403 297 707t237 335q-6 -4 -13 -6t-13.5 -6t-16.5 -8t-24 -12t-17.5 -7.5t-9.5 -3.5q-129 -41 -253 -41t-185 62l-37 -37l-53 53q10 6 39.5 41t85.5 98q11 21 67 94v23q174 -143 329 -143t271 118l55 -28l3 -13
q-406 -578 -406 -1030z" />
    <glyph glyph-name="eight" unicode="8" horiz-adv-x="886" 
d="M784 20q-27 0 -43 9q-27 0 -32 2h-2q-182 0 -375 -117q-111 98 -199 98h-4q-4 -2 -34 -4t-66 -26q2 66 102 153v322q-4 25 -10 47t-6 39l16 -15h14l5 -2h10q131 0 194 21q-74 26 -241 41l18 69l-2 267q-8 24 -8 26l-2 2v2q-10 18 -15.5 32.5t-9.5 23.5q145 2 293 40
t240 103l14 -16q0 -6 76 -82h-2q31 -20 90 -21q2 1 57 13l10 -11q-8 -63 -73 -104v-293l20 -53q-70 0 -182 -19l-57 -18v-2q38 -21 114 -21t78 2h55l-28 -59v-375l30 -67q-18 -7 -45 -7zM565 96h4l4 2h5v359q-27 6 -105 45q-25 -10 -33 -10q-7 -5 -86 -33v-301
q72 -23 127 -62v2l6 -4q2 -6 17 -12q39 14 61 14zM426.5 610q4.5 0 44.5 -20q23 18 41 24t34.5 13.5t31.5 13.5v248q-29 10 -41 24q-29 2 -93 68q-6 -2 -14 -3t-20 -5t-25.5 -7t-18.5 -5t-10 -3h-2v-315l64 -29q4 -4 8.5 -4z" />
    <glyph glyph-name="nine" unicode="9" horiz-adv-x="917" 
d="M127 950v8l-4 9q-4 4 -5 11t-5 17q301 0 536 131v25q100 -160 189 -160q31 0 43 13h6l2 2h6l8 -9q0 -66 -94 -125v-798l5 -22q5 -21 7 -25t4 -9l23 -22q-76 20 -135 20q-172 0 -310 -100q-131 78 -213 78t-149 -53l-16 -9q24 107 112 176.5t197 69.5h24l2 -2
q47 0 100.5 -27.5t86.5 -64.5q18 8 41 10v344q-147 -88 -219 -164q-143 115 -295 119l-4 -2h-35q23 39 46 66.5t60 44.5v411q-8 20 -8 29q-4 8 -6 8zM399 518l76 -49q4 4 12.5 8t28.5 17t43 24v-2q3 2 27 14v349q-72 12 -115 84q-19 -7 -29 -9t-11 -3l1 -1q-4 -2 -12 -2
l-2 -2q-6 0 -56 -10v-406q12 -12 37 -12z" />
    <glyph glyph-name="colon" unicode=":" horiz-adv-x="342" 
d="M334 522l-154 -164l-157 164l157 164zM334 68l-154 -156l-157 156l157 165z" />
    <glyph glyph-name="semicolon" unicode=";" horiz-adv-x="342" 
d="M322 37q0 -27 -21 -78q-84 -133 -221 -133h-31l27 27q6 10 14 18l16 16l17 37v4l2 4q0 53 -98 113v10l149 158q145 -27 146 -168v-8zM334 561l-154 -162l-157 162l157 168z" />
    <glyph glyph-name="less" unicode="&#x3c;" horiz-adv-x="1490" 
d="M504 156q0 -66 -58.5 -120t-155.5 -54t-173 86q-72 94 -72 219q0 180 123 302t302 122t329 -148l54 -68q54 -69 169 -210t207 -142q66 0 107.5 50.5t41.5 121.5q0 100 -63 101q-49 0 -58 -82q-67 94 -22 139t82 45q68 0 113 -58t45 -136q0 -125 -83 -208t-208 -83
q-176 0 -320 145l-219 264q-123 141 -250 142q-100 0 -179 -81t-79 -185t60 -181q63 -74 140 -74t87 82q-20 -4 -31 -4q-80 0 -80 78t76 78q51 0 83 -37.5t32 -103.5z" />
    <glyph glyph-name="equal" unicode="=" horiz-adv-x="1222" 
d="M98 582v110h1039v-110h-1039zM98 217v111h1039v-111h-1039z" />
    <glyph glyph-name="greater" unicode="&#x3e;" horiz-adv-x="1490" 
d="M1464 287q0 -125 -75 -219q-73 -86 -171 -86t-157.5 54t-59.5 120t32 103.5t85 37.5q74 0 74 -78t-78 -78q-15 0 -33 4q10 -82 89 -82t139 74q59 77 59 181t-76 185t-192 81t-240 -142l-219 -264q-139 -145 -319 -145q-123 0 -206 83t-83 208q0 79 44.5 136.5t96.5 57.5
t80.5 -28.5t28.5 -66.5t-33 -89q-8 82 -57 82q-66 0 -66 -101q0 -72 43 -122t106 -50q96 -1 209 141t168 211l56 68q147 147 327 147t304 -122t124 -301z" />
    <glyph glyph-name="question" unicode="?" horiz-adv-x="749" 
d="M739 852q0 -100 -69 -178q-56 -74 -144 -113t-139 -39q-23 -16 -41 -96t-18 -137l-64 4q-4 12 -9 32.5t-7 26.5t-2 8l-25 74q-27 102 -65 137l-2 7l-2 4v16q55 -14 120 -14q193 0 236 184q12 51 12 106t-22 117q-23 72 -72 72q-68 0 -123 -74t-55 -155l-221 106
q20 106 104 171t211 65t252 -89q145 -98 145 -235zM455 70l-160 -158l-162 158l162 166z" />
    <glyph glyph-name="at" unicode="@" horiz-adv-x="1613" 
d="M1161 309q-66 0 -115 35t-59 94q-102 -129 -262 -129q-130 0 -213.5 89.5t-83.5 251.5t115 321q131 174 319 174t250 -162l43 135h121l-131 -424q-53 -170 -53 -217q0 -63 82 -63q119 0 218 132t99 332t-154 347q-168 156 -448 155q-330 0 -549 -215q-201 -201 -201 -470
t180 -453q201 -201 535 -201q186 0 358 70q112 49 240 137l59 -82q-152 -107 -258 -154q-178 -76 -399 -75q-387 0 -614 233q-205 209 -205 512q0 342 245 572t613 231q313 0 507.5 -176t194.5 -445q0 -225 -131 -387q-127 -168 -303 -168zM864 1042q-131 0 -223 -135
q-90 -127 -90 -274q0 -104 51 -161.5t133 -57.5q137 0 225 152t87 260q0 108 -50.5 162t-132.5 54z" />
    <glyph glyph-name="A" unicode="A" 
d="M254 8q-100 0 -176 -41q-8 -2 -21 -10q-2 -10 -26 -20v16l-2 2v6q0 129 217 225l22 8q23 7 51 17l220 524q-51 57 -99 58q-72 0 -114 -82q-35 35 -35 73t16 64h-2q76 152 221 151q60 0 86 -22q2 0 2 -2l15 -8l-2 2l8 -4l2 2v2l6 12q0 2 2 6v4l2 4q0 57 -94 86h-4l-23 4
q-4 0 -10 2h-2q-49 0 -63 -8q-39 0 -121 -63v26q0 43 41 103q88 147 278 147h10q10 -2 31 -3.5t58 -16.5q68 -31 92 -90l336 -891q23 -61 28 -68q33 -47 82 -47q11 0 115 29l-191 -299q-129 35 -190 141q-39 61 -39 80q-4 4 -90 260h-416l-67 -166q27 -4 53 -8t55 -8
q60 -18 107 -49l32 41l52 -43l-215 -240q-76 72 -187 88q-43 6 -51 6zM694 920l-131 -318h246z" />
    <glyph glyph-name="B" unicode="B" horiz-adv-x="1218" 
d="M459 1032h-6l-2 2q-92 0 -236 49q-55 17 -94 17t-90 -51v24q0 33 26.5 84t96.5 89t152 38t191 -37t151 -37t91 37l13 -6q-4 -76 -86 -133q-54 -44 -146 -70q-12 -4 -16 -4l6 -14q-41 -27 -41 -82v-594q0 -123 -143 -219q-49 -35 -78 -35l-2 -2h-4l-4 -2h-27l12 14
q0 4 4 9v2q0 16 9 36v340h-7l-4 -2q-49 0 -49 -67q-31 31 -47 43v-2q-37 31 -37 114q0 135 141 154v12l-2 2v11q0 113 80 187t189 95q-18 -2 -41 -2zM513 4h-32q-170 0 -315 -94q63 150 199 227q133 82 276 82q90 0 150 -26v567h75v-58q72 23 103 140l6 30q0 8 2 19v6
q0 164 -125 225l-117 -80v-610q0 -70 -84 -143q-90 -68 -164 -68l-6 17q8 10 21 24q0 6 3 18l7 31l2 4v625q28 84 14 35q12 25 33 39v2l424 291q186 -70 186 -271v-8q0 -102 -96 -242q-46 -57 -65 -71h6q7 -2 31 -6t34 -9q96 -43 97 -110v-455q0 -25 6 -37l20 -35l-8 -12
l-32 4q-16 0 -27 4h-31q-4 -2 -20 -3t-30.5 -6t-68.5 -13q-125 -41 -217 -125q-145 88 -211 88l-33 2q-10 2 -13 2zM946 279l-28 6h-5l-4 2h-8l-2 -2h-10l-4 -2h-6l-5 -4h-4l-4 -3v-118q6 -6 29 -19.5t51 -34.5v175zM946 588q0 35 -55 35l-2 6h-23v-97q0 4 4 0h2q8 -6 23 -6
h25q2 2 6 2t8 2h2l2 2q6 0 8 3v53zM946 457h-2l-4 -4h-10l-2 -2h-33q-14 0 -23 6h-6v-101q8 4 17 6h2l4 3h24l33 -9v101zM131 457q-1 0 -1 1z" />
    <glyph glyph-name="C" unicode="C" horiz-adv-x="1239" 
d="M678 -84q-362 0 -543 277q-104 160 -104 342t88 352q89 161 233 266q70 51 193 104q4 0 15.5 2.5t20.5 3.5t15 5l6 -13q-332 -258 -332 -610l-2 -4q0 -227 154 -387q205 -218 483 -133v897h-2q-46 0 -110 45q-6 4 -13.5 7t-13.5 7v-645q0 -96 -73 -163t-169 -66h-24
q35 50 35 90v680l-89 -45l-28 61l516 279q72 -117 168 -117h2l2 2q16 0 88 35q-31 -72 -89 -121t-124 -53v-860q92 22 229 159l15 -8q-8 -51 -33 -88q-66 -111 -182.5 -190.5t-249.5 -104.5l-60 -6h-22z" />
    <glyph glyph-name="D" unicode="D" horiz-adv-x="1097" 
d="M349 0q-155 0 -288 -78q59 129 172 201t254 76v835q-10 0 -18 -2l4 -6q-39 -27 -39 -84v-543q0 -123 -143 -219q-51 -33 -78 -37l-2 -2h-8l-2 -2h-19l8 21q-2 4 11 39v295h-4l-4 -2q-51 0 -52 -68q-12 10 -25.5 23.5t-21.5 19.5v-2q-35 28 -35 115q0 135 140 153v10l-2 2
v11q0 113 84 188q61 61 149 86h-80q-242 0 -295 86q-25 37 -24 101v8l2 4v10l2 2v14l2 2v11q79 -23 164 -23h2v2h16v4l592 21q107 0 178.5 -69.5t71.5 -170.5l2 -905q0 -1 16 -21l-4 -14q-272 -37 -407 -178q-164 86 -319 86zM563 201q158 -20 266 -86v319q-88 20 -141 21
l-10 4q-10 0 -51 -10q-27 0 -64 -17v-231zM727 805q6 0 102 22v160q0 29 -47 53l-2 2h-18l-118 2q-40 0 -81 3v-218q25 -25 80 -24h84zM653 729q-48 0 -90 12v-227q16 0 46 7t53 10l22 4q68 0 145 -23v233l-18 -2q-42 -14 -90 -14h-68zM96 463q-1 0 -1 1z" />
    <glyph glyph-name="E" unicode="E" horiz-adv-x="1165" 
d="M621 954v-299l65 68q52 51 148 51t141 -30q8 -6 19 -10t16 -7l16 27l57 -35l-174 -275l-57 35l25 39q-109 61 -160 62l-4 -2h-15q-2 -2 -12 -3q-41 -2 -65 -45v-311h4l2 2q45 0 49 4h12q213 0 371 -75l16 32l68 -32l-139 -236q-250 86 -486 86t-342 -86q0 44 29 80
q27 42 119 102q61 48 103 64t118 45v799q0 39 41 102q100 162 280 166l8 8q8 -8 29 -8l4 -2h2q63 0 168 -64l15 29l61 -33l-149 -268l-64 31l25 39q-28 16 -80 51v-2q-49 23 -78 23t-34 -1q-57 0 -105 -41t-47 -80zM485 930v-594q0 -129 -143 -219q-54 -30 -80 -35l-2 -2h-8
l-2 -2h-14q0 14 14 57v344q-14 0 -19 2h-4q-72 0 -75 -49l2 -2v-12q-8 -4 -33 -4t-53.5 32.5t-30.5 67.5l-2 2v29l2 2q1 127 99 157q50 16 75 15l4 2q25 0 33 2v6l-2 2v10q0 113 84 191q73 72 186 92l4 -16q-14 -6 -24.5 -34t-10.5 -44zM639 1237q0 -82 -76 -141
q-78 -66 -157 -66l-3 2h-4l-2 -2q-75 0 -153 20t-92 21q-53 0 -121 -72q0 125 80 205q85 76 180 80v2q64 -4 162 -30t105 -25.5t9 2.5q23 0 72 53v-49z" />
    <glyph glyph-name="F" unicode="F" horiz-adv-x="1361" 
d="M1180 127h-76v434h-141l-2 -352q0 -14 -7 -29q-41 -104 -194 -175t-259 -71t-167 25q-129 51 -174 51h-4q-4 -2 -17 -2q-66 -6 -110 -59q12 114 86 180t163 66t220 -76v2q129 -70 159 -72l17 23v-21h4q23 0 42 31t19 61l2 2v840q0 74 68 123l289 199q74 -88 147 -88
q37 0 92 43l13 -9q-4 -12 -4 -20l-3 -2q-1 -19 -29 -63q-61 -96 -134 -113v-928zM446 557h-8l-4 2h-14q-70 0 -70 -47l2 -2v-8l2 -2v-15q-49 0 -77.5 38t-28.5 87q0 170 166 170h18q4 -2 12 -2v8l-2 2v11q0 161 107 217.5t166 66.5l4 -16q-16 -6 -27.5 -31.5t-11.5 -48.5
v-530q0 -123 -143 -217q-49 -35 -78 -35l-2 -2h-4l-4 -2h-21l18 55v301zM238 1108q-20 0 -93 -45v18q0 41 31 95q70 119 246 122l14 7q4 -4 64 -11h20q90 -18 92 -20h4q37 -18 111 -18t123 44l14 -6q-10 -96 -103 -164t-194 -67h-8l-2 2q-51 1 -157 23t-152 22l-2 -2h-8z
M1104 1051h-8q-57 0 -133 53v-328h141v275z" />
    <glyph glyph-name="G" unicode="G" horiz-adv-x="1290" 
d="M1276 356q0 -184 -148 -290q-208 -152 -474 -152t-441 168q-182 168 -182 439q-1 271 159 471t422 239l4 -12q-31 -20 -104 -84q-225 -207 -225 -560l2 -2v-20l-2 -2q0 -135 24.5 -215t59.5 -139q72 -135 180 -177q55 -18 141 -18h4q4 2 14 2h21q4 2 25 2l4 2h10v621
l-55 -72v-244q0 -37 -29 -84q-68 -115 -203 -114h-14v14l2 2q0 6 6 12v3l8 40v746l-51 -31v92l465 287q70 -92 156 -92q26 4 45 12l45 23l43 -33l-334 -449q422 -76 422 -385zM884 1016q-50 0 -110 41q-4 4 -11 12t-22 18l-26 -14v-401l276 372q-57 -28 -107 -28zM1022 338
v16q-2 6 -2 41l-2 2l-35 -10q-30 -10 -45 -10h-37q-25 0 -41 8l-12 2v-137l24 6h33q50 0 107 -23q10 63 10 105zM932 455q39 0 74 18q-45 135 -158 174v-180q44 -11 47 -12h37zM848 170v-137q96 53 131 129q-47 20 -66 20h-12l-4 -2l-43 -8l-2 -2h-4z" />
    <glyph glyph-name="H" unicode="H" horiz-adv-x="1370" 
d="M997 553h-247v-379l18 21l57 -50l-235 -233q-146 92 -288 92t-249 -78q43 139 195 217q130 60 241 60t189 -25v998q-35 12 -35 63q0 76 74 76q29 0 50 -23.5t21 -62.5t-38 -58v-411h247v309q-6 0 -8 4h2q-6 4 -16 10.5t-21 16.5h2q-4 2 -12 10l-35 -20l-32 55l229 155
q109 -127 190 -126h4q28 14 56 14q-33 -61 -74 -96q-17 -8 -35 -23h2l-6 -6l-14 -4v-885l49 -51l41 24l35 -51l-2 -8q-27 -16 -65 -44t-77 -55t-84 -87q-137 137 -217 180l88 92v379zM172 606q0 56 44.5 107t96.5 51l78 4v174q33 84 131 141q63 41 131 41l-18 -18v-4
q-20 -20 -21 -103v-575q0 -33 -30 -88t-96 -95t-134 -40h-10l-2 2h-20l20 20q4 2 14 13l22 39q7 13 9 21t4 9v256h-69l-21 -8l-8 -2q-27 -18 -27 -64l2 -2v-28q-45 17 -68.5 57.5t-23.5 54.5q-4 12 -4 37zM365 1063q-37 0 -115 29t-105 28l-4 -2h-14q-2 -2 -12 -2
q-43 -4 -80 -67v28l-2 2v8l-2 5v10q0 84 64.5 137t152.5 53t166 -37q16 -8 92 -34h4q24 -4 56 -4t41 6t16 6l6 2l6 -12q-41 -61 -108.5 -107.5t-153.5 -46.5l-2 -2h-6z" />
    <glyph glyph-name="I" unicode="I" horiz-adv-x="1003" 
d="M946 1167v-966q0 -55 -49 -119q-41 -49 -96 -84q-111 -74 -215 -80q-6 0 -13 -2h-34q-105 0 -195 29q-127 55 -158 55h-10q-66 0 -145 -68q0 116 98 195q69 57 134 57t163 -67q22 -22 45 -35q4 -8 37 -35q41 -27 45 -29q47 -8 78 -8t58.5 29t27.5 70v931q0 10 10 35
q59 131 252 170l8 -14q-41 -41 -41 -64zM659 965v-574q0 -72 -88 -145q-86 -76 -170 -76q31 74 31 115v223q-14 27 -39 27l-2 2q-55 0 -59 -48l2 -2v-6l2 -2v-16q-117 18 -117 143q0 66 48 106t120 40h6l39 -7v123q0 23 35 66q18 31 83 72t109 51h3l2 2h6l8 -12
q-19 -38 -19 -82zM480 1038q-48 0 -63 4t-72 22t-101 18t-87.5 -25t-62.5 -51v28q0 49 27 96q76 143 262 144q27 0 125 -23l2 -2h4q12 -7 74 -19t80 -13l4 2q50 -1 116 36l13 -8q-25 -88 -105.5 -148.5t-215.5 -60.5z" />
    <glyph glyph-name="J" unicode="J" horiz-adv-x="952" 
d="M909 1174h2v-955q0 -53 -49 -129q-90 -137 -336 -170q-43 -6 -69 -6h-39q-104 0 -213 46q-177 75 -174 243q0 78 47 133t114 55t112.5 -45.5t45.5 -99.5t-37 -93.5t-73 -39.5t-54 6q20 -51 80 -84q51 -31 133 -31l4 -2h9q102 0 185 56t83 157v827q0 94 227 211q4 2 9.5 3
t13.5 6l6 -15l-4 -4v-4q-23 -45 -23 -65zM397 162v362q-2 2 -24 13h-2l-2 2h-9l-4 2q-23 -2 -39 -15.5t-18 -33.5l2 -3v-18q-119 23 -119 127q0 72 50.5 115t127.5 43h15l4 -2h12l2 -2h4v127q0 74 146 153v-2q8 4 20 11.5t29 17.5v-2q34 17 43 26h6l8 -12q-31 -64 -31 -129
v-713l-6 -22v-2q-25 -56 -108 -113q-82 -47 -166 -47q59 72 59 117zM309 1276q75 0 165 -26t122 -26t82 29l12 -6q-4 -84 -79 -146t-154 -63q-4 -2 -39 -2t-125 27t-137 27h-4q-16 -6 -27 -7q-45 -23 -80 -49v19q0 123 141 194q34 15 60 21t33 8h30z" />
    <glyph glyph-name="K" unicode="K" horiz-adv-x="1343" 
d="M1133 -94q-97 0 -154 67q-37 43 -82 152l-2 2l-190 -213q-25 16 -40.5 26.5t-21.5 14.5h2q-92 57 -237 57q-193 0 -324 -100q72 188 315 276q76 27 125 30t51 5h11q150 0 241 -73l21 20l45 -35q-16 50 -78 254q-44 126 -70 152q-4 -72 -10 -97q-18 -70 -98 -133h2
q-74 -61 -154 -61l-8 20h10q4 6 12.5 15t10.5 17t8 21q5 13 10 35v627q10 45 25 74q25 57 82 105t96 67.5t84 25.5q-40 -48 -51 -65l-19 -55v-379l287 534l15 -4q0 -25 73 -49q23 -8 51 -8q63 0 109 45l4 -14l8 8q0 -104 -61 -180q-66 -88 -166 -89q-45 0 -74 15h-4
l-137 -248q116 -116 149 -198.5t48 -116.5q24 -82 53 -162q53 -141 117 -146l4 7q18 -18 73 24l37 -22l-188 -248h-10zM471 381q0 -84 -88 -164t-176 -80v13q43 73 43 102v229q-12 4 -17 6h-16l-4 2q-47 -2 -57 -55q-37 8 -62.5 47t-25.5 93t45 101.5t116 47.5h11l4 -2h6v84
q0 122 95 172.5t142 64.5l7 -14q-7 -6 -23 -61v-586zM31 1047q0 94 71 170q69 69 168 73l4 4q111 -15 170.5 -35t71.5 -22l2 -2h6q45 0 82 25l12 -7q0 -59 -69 -129q-63 -68 -127 -71h-10q-94 0 -144 24h-2l-6 2l-102 13q-76 0 -127 -74v29z" />
    <glyph glyph-name="L" unicode="L" horiz-adv-x="1241" 
d="M524 340q0 6 4 31v569q0 111 172 221t287 111h8q35 0 133 -39q61 -31 84 -70l-184 -207l-53 50l35 41q-4 4 -7.5 6t-11.5 11t-19 15t-28 21q-30 15 -57 37h-6l-4 2h-13l-2 2q-70 0 -92 -39q-20 -27 -20 -41v-623q0 -88 -61.5 -140t-90.5 -65v3q-10 -8 -24.5 -11.5
t-29.5 -9.5t-18 -6l-37 -6h-30q57 57 65 127v10zM596 10q-219 0 -373 -69q-14 -4 -33.5 -15.5t-42.5 -21.5q89 170 280 246t378 75q123 0 215 -30v378q-35 11 -35 51t22.5 63.5t51 23.5t50 -23.5t21.5 -62.5t-36 -56v-395q4 -4 22 -8l8 -6h-4q8 -4 10 -6v2l15 -9l29 35
l57 -45l-189 -223q-227 96 -446 96zM205 487q-23 0 -41.5 -14t-20.5 -37l2 -2v-14h-10l-2 -2h-8q-35 0 -64.5 34t-29.5 87q0 113 123 159q32 6 90 15v52q0 52 2 62q8 57 94 117q82 64 141 64l-4 -2l15 -5q-25 -74 -25 -79l-4 -576v-4q0 -31 -33 -82q-88 -141 -235 -156
q49 80 49 156v209l-33 18h-6zM61 1012q0 115 63.5 185.5t174.5 70.5q59 0 157 -35t123.5 -35t51.5 8q4 4 14 8l10 -8q-10 -86 -98 -141q-79 -55 -147 -55t-129 24q-13 0 -19 4t-12 6l-68 13l-2 -2q-23 0 -30 -6q-12 0 -27 -15q-14 -4 -62 -43v21z" />
    <glyph glyph-name="M" unicode="M" horiz-adv-x="1619" 
d="M186 442q-51 0 -82 43t-30 97q0 78 71 120q31 18 41 19l78 4v199q0 68 90 116l492 250q90 -152 190 -157v147h74v-143h4q74 0 211 155q80 -90 152 -127h6q14 0 26 6h7l2 3q8 0 26 12v-35l-2 -4v-10l-2 -2q-2 -29 -26.5 -61t-53.5 -44v-815q0 -29 20.5 -52.5t49.5 -29.5
l20 29l58 -41l-152 -207h-8q-221 0 -221 305v291h-117v-373l25 23l49 -56l-248 -190q-92 104 -186 104q-41 0 -121 -26q0 15 12 37h-2q47 86 113 131v350h-115v-358q0 -33 -29 -91q-74 -141 -207 -141q-20 0 -68 16t-75 15v4q-82 27 -104 27q-76 0 -123 -66
q0 117 60.5 189.5t166.5 72.5q60 0 106 -18t60 -27.5t43 -9.5v16q16 -16 28 -16t38 21.5t26 43.5v865l-43 -25l-2 -2l-6 -4v-2q-6 -6 -6 -12q-6 -6 -6 -17v-594q0 -94 -95 -149t-161 -55h-13v2h-18l20 20h2q33 33 33 61v226l-18 12h-2l-4 2h-7l-2 2q-37 -4 -36 -37
q2 -4 2 -12l4 -4l4 -21h-10l-2 -2h-7zM975 1014h-2v-824l51 -14l2 -2l8 -2v854q-30 -12 -59 -12zM637 727h115v313q-4 4 -6.5 4t-7.5 2t-9.5 5t-12.5 5t-42 29v-2q-8 4 -19 15l-18 -4v-367zM1110 727h117v299q-57 10 -92 51q-13 -16 -23 -16l-2 -2v-332z" />
    <glyph glyph-name="N" unicode="N" horiz-adv-x="1298" 
d="M1083 -86h-12q-100 0 -215 207h2q-20 31 -41.5 77t-54.5 108t-49 102q-106 45 -202 45t-144 -33v-197h2l4 2h12q127 0 250 -84l24 33l46 -45l-164 -215q-143 90 -252 90t-195 -41v2q-15 -10 -35 -18t-32 -13q59 217 262 279v274l-19 9h-4q-14 0 -23.5 -17.5t-9.5 -34.5
l3 -2v-22q-53 0 -90 43t-37 100q0 125 90 162q30 8 90 14v336h-4q-10 -8 -25.5 -11t-25.5 -6t-18 -3t-11 -4q-86 -43 -92 -113h-15l4 -4q-43 8 -43 104t78 179q76 88 188 88t189 -72q51 -47 135 -170q23 -41 54.5 -101.5t84.5 -156.5q38 -25 155 -20q26 1 38 8h8l17 4h4
l-2 239h-4l-5 -2h-10q-102 0 -145 41l-39 -33l-49 50l225 215q94 -74 161 -74t130 33l12 -9q-4 -59 -56 -112t-108 -82v2q-14 -10 -37 -16v-1135zM536 528q64 0 130 -18q-56 116 -104 222t-81 171q-68 123 -114 146v-549q105 28 169 28zM932 709h-55q-29 0 -54 8
q6 -14 18.5 -41t57.5 -128t111 -196l-2 367q-20 -10 -76 -10z" />
    <glyph glyph-name="O" unicode="O" horiz-adv-x="1374" 
d="M680 -8q49 0 117 16v1090l-62 -31v-772q0 -23 -51 -76q-26 -33 -76 -67t-100 -35l-2 2h-4l-2 2h-8l14 37v2l4 35l2 4v790q-44 -22 -78 -22v80q88 28 363 137v100h75v-61q14 6 54 26h2l2 2q31 9 78 39v15q260 -160 331 -441q20 -80 21 -166q0 -223 -109 -424
q-109 -209 -307 -301q-124 -59 -274 -59q-199 0 -359 109q-280 191 -280 565q2 2 2 6v6l-2 2q0 41 2 47q8 248 217 475q143 156 299 156h18v-2h13l2 -14q-209 -106 -271 -359q-4 -16 -4 -48t6 -99v-27q0 -76 -32 -110v-15q0 -158 53 -321q98 -293 346 -293zM1124 537v69
q0 90 -18 168q-4 0 -36 -12t-66 -12h-50q-49 0 -82 12v-356l89 12h51l65 -8h3l30 -2l8 38q6 83 6 91zM961 338q-37 0 -59 -7t-30 -7v-289q77 33 136 109t84 175q-14 3 -25 11q-57 4 -68 8h-38zM997 817q39 0 86 31q-74 184 -196 293l-15 -4v-295q25 -25 99 -25h26z" />
    <glyph glyph-name="P" unicode="P" horiz-adv-x="1126" 
d="M1052 1159q20 0 25 2h2l4 4h11l2 2h16v-28l-2 -2q-4 -72 -68 -99v-923q2 -12 7 -17v-2l2 -2q6 -23 22 -49h-22l-4 2h-13q-4 4 -35 4l-6 2h-4q-180 0 -313 -157l-58 57q-10 4 -14 12v-332h-31q-104 0 -157 99q-47 -21 -88 -78l-13 -21h-98v17l2 4q23 94 23 115v264
q-19 -9 -70 -45q-14 -23 -21.5 -30t-15.5 -16t-17 -20.5t-14 -15.5q-18 70 -18 96q0 180 156 246v227q-5 5 -23 14h-6l-4 3h-10l-2 -3q-45 0 -45 -34l-2 -2v-2l2 -2v-3h2v-4h2v-20q-45 8 -73 47t-28 86q0 147 183 147l4 -2v312q0 23 -23.5 46t-56.5 23t-60.5 -38.5
t-27.5 -79.5h-15q-25 24 -24 59q-4 12 -4 35q0 86 65 147q68 61 154 62l10 4q215 -16 215 -246q0 -18 -2 -23q4 0 6 3v-3q5 5 15 11t21 14t22 12v230h65v-187q129 70 289 203q101 -125 161 -125zM473 -168q0 -68 64 -104v1216q-16 -8 -31 -18h-4l-29 -15v-1079zM743 444
q32 0 68 -12v307q-27 -10 -78 -10h-59q-29 0 -70 14v-309l113 10h26zM731 809q51 0 78 14h2v205q-31 0 -78 33q-37 -29 -57 -37q-10 -8 -29.5 -18.5t-40.5 -24.5h2l-4 -4v-148q33 -20 98 -20h29zM748 360q-10 0 -23 5h-41l-80 -17v-92q114 -60 197 -143l10 6v227
q-19 8 -43 14q10 -10 -10 0h-10z" />
    <glyph glyph-name="Q" unicode="Q" horiz-adv-x="1372" 
d="M795 1114h-3l-12 -4l-6 -6q-6 -2 -11 -2t-9 -2l-21 -10v-777q-1 -14 -27 -49t-86 -81t-110 -46h-10v2h-21q21 21 24 42.5t7 33.5v797q-37 -23 -78 -23v80q10 2 52 16.5t133 44.5t178 76v97h75v-62l7 4q10 0 45 21h-2l4 4q1 0 90 47q164 -96 254 -254t90 -344
q0 -252 -134 -469t-347 -281q0 -2 2 -2v-2q143 -131 190 -131q27 0 76 39v-20h2v-15q0 -87 -137 -121q-35 0 -37 -4h-17q-59 0 -102 20t-231 199q-184 12 -335.5 123.5t-213.5 282.5q-45 115 -45 264l2 4v12l-2 3q0 163 56 286t163 234q150 160 299 159h18v-2h13l4 -12
q-91 -51 -138 -98q-129 -133 -159 -408l-2 -14q0 -14 -2 -18v-99q-2 -2 -2 -31q0 -190 65 -352q80 -195 229 -246q45 37 99 37t123 -30v1087zM1122 555v45q0 43 -10 109.5t-10 83.5q-55 -23 -101 -23h-49q-60 0 -82 12v-358q56 14 88 14h52q57 0 98 -14l8 43q6 80 6 88z
M1090 338l-37 14q-45 0 -58 6h-37l-88 -16v-289q77 33 139 111q61 79 81 174zM995 840q39 0 86 30q-74 184 -196 291l-15 -4v-295q23 -23 99 -22h26z" />
    <glyph glyph-name="R" unicode="R" horiz-adv-x="1257" 
d="M1081 975q0 -101 -56 -199t-142 -151q123 -59 157 -230l7 -24q2 -10 3 -19.5t5 -21.5q0 -14 21 -80t41 -92t65 -25q4 2 8 3t14 6t47 14l-147 -234h-6l-2 -2h-6l-3 -2h-8q-67 0 -127 50t-75 102l-164 -156q-139 80 -221 86h-20q-19 0 -36 2l-53 2q-154 0 -272 -98
q23 115 135 194q94 70 203 95q50 4 118 16q3 -2 11 -2t19 -3t47 -8t192 -59l12 19q-11 22 -19 86q-35 268 -118 286v-110q0 -106 -142 -170q-53 -27 -80 -27l-4 -2h-4l-4 -2h-31q46 54 46 92v596q0 25 2 29q0 76 73 127v4l342 199q123 -57 164 -213q2 -10 3 -11l5 -38v-29z
M215 182v285l-16 12h-4l-2 2q-10 -4 -27 -20l-4 -15l-2 -2v-8l-6 6v-14q-4 0 -4 -2h-3q-4 -2 -10 -2q-66 0 -74 111l-2 4v12q0 66 41 107.5t111 46.5v16l-2 4v10q0 97 49 147t113 86t82 40l-4 -7l14 -2l-21 -47q0 -12 -4 -28l-4 -21l-2 -565q0 -62 -84 -150
q-88 -82 -172 -82q37 45 37 76zM391 1010h-10q-70 0 -121 26h2q0 2 -2 2l-96 25q-57 0 -133 -80v25q0 120 84 182.5t137 62.5l2 2h8q29 0 121 -30l2 -2h2q57 -31 107 -31l6 6l16 -4q12 0 51 18t49 29q3 0 5 2l14 -8q-16 -93 -84.5 -156t-159.5 -67v-2zM711 1032v-428h4
q12 3 63 29v-2q79 56 113 168q5 33 8 47v22q-4 12 -4 29q-9 20 -18 68q-35 98 -105 135q-61 -43 -61 -68z" />
    <glyph glyph-name="S" unicode="S" horiz-adv-x="1298" 
d="M690 633q70 0 76 4h12q160 0 221 -43q51 -31 60 -111q-2 -1 -6 -25t-21 -67q-35 -96 -135 -129l18 27q2 4 3.5 9t5.5 14t4 22l2 4q0 90 -234 90h-106q-8 -2 -14 -2h-9q-6 -8 -28 -47q-123 -188 -263 -189q-8 0 -24 5q-104 33 -105 118l3 2q0 59 65 97q10 4 16.5 7t16.5 3
l2 2h6q113 0 129 -105q10 10 24.5 23.5t22.5 23.5t12.5 18.5t12.5 18.5q0 8 12 21v4h-6l-4 -2h-25q-94 0 -194 30t-136 97q-20 39 -20 98q0 94 70 164q31 -121 168 -160q86 -23 241 -22l2 2h4l15 33h-9q-311 0 -370 127q-23 49 -23 110q0 221 248 328q75 31 128 34t54 5h41
q2 -2 33 -2h4q12 0 78 -15q102 -29 195 -86l57 48l51 -48q-12 -18 -27 -26h3l-37 -37q-75 -52 -197 -219q45 -4 115 -5t135 -22q223 -59 223 -235q0 -102 -61.5 -203t-126.5 -170.5t-97 -111.5t-64 -82t-71 -89q-4 -10 -4 -13t-3 -9l-17 -33q-286 113 -461 113q-8 0 -76 -13
q-154 -27 -282 -108q45 119 167 194q83 57 224 97q62 14 114 17t79 5t45 -1t38 -5t52 -5t165 -48q51 63 125 151t74 193q0 33 -35 84q-57 82 -225 82h-133q-10 -2 -11 -2h-16l-16 -35h20zM480 1153q-6 0 -17 -2q-133 -31 -141 -131q2 -96 143 -125q57 -12 102 -12h75
q30 0 38 2h27q19 31 33 48q16 17 26 33t22 27q-37 74 -113.5 120t-156.5 46h-8q-24 -6 -30 -6z" />
    <glyph glyph-name="T" unicode="T" horiz-adv-x="1159" 
d="M545 -84q-111 0 -197 33q-150 59 -233.5 180t-83.5 283v8l2 2q0 219 139 407q102 147 254 166q-188 -211 -188 -401t106 -322v2q117 -141 299 -141h2l4 2q145 0 254 76v803h-4q-16 -6 -27 -6q-18 -8 -98 -9l-2 -2h-6q-95 0 -195 17.5t-173 30.5t-150 14h-10q-8 -2 -48 -2
q-92 -10 -153 -94v26q0 47 37 109q104 164 321 166l11 4q68 -4 221 -25l112 -20q25 -10 80 -17l43 -4l43 -6h51l2 2h29l2 -2q85 0 144 39l12 -8q-12 -52 -62 -106.5t-104 -76.5v-770q39 29 117 136q0 -328 -336 -455q-104 -39 -215 -39zM754 979v-555q0 -80 -78 -152
t-162 -71h-12v2h-19l15 16v6l4 2q0 4 8 13q0 8 10 18v6l2 2v4l2 2v508l-59 -28v84l246 143h43z" />
    <glyph glyph-name="U" unicode="U" horiz-adv-x="1318" 
d="M328 20q-59 0 -164 -43h-2q-10 -10 -11 -10h-20q43 156 215 221v326q-21 16 -37 16l-2 -2q-23 0 -41 -13t-22 -34h2v-20q-41 0 -70 33.5t-29 78.5q0 123 115 164q37 2 80 13h4v225q0 8 -16 37q-41 68 -123 68t-148 -91q-4 -4 -6 -8h2q-4 -7 -24 -29q0 98 42 183t102 113
t126 28l8 4q111 -10 184 -94t72 -203v-778q6 -4 15.5 -5t19.5 -5t19.5 -5.5t19.5 -5.5v1086h78v-166l305 192q47 -92 127 -122q19 -8 37 -8t67 24q0 -53 -31.5 -96t-74.5 -58v-821q0 -72 90 -72h8l4 2q12 0 15 2h4l4 3h8l2 2h6l2 2h23l-189 -238q-135 7 -204 215
q-41 -29 -76.5 -52t-95.5 -65t-107 -100q-180 106 -313 106zM913 449q-6 0 -24.5 4.5t-29.5 6.5t-27 4q-16 4 -115 -13v-297q11 -14 28 -25l19 -14q60 42 149 100v234zM842 786q35 0 71 19v231q-41 12 -73 49l-123 -73v-209q10 -16 67 -17h58zM778 719q-24 0 -61 10v-207
q27 0 51 10q29 0 31 3h24q6 -3 37 -3q12 -5 53 -10v211q-31 -14 -90 -14h-45z" />
    <glyph glyph-name="V" unicode="V" horiz-adv-x="1259" 
d="M324 993q0 8 -19 37q-37 57 -106 57q-109 0 -131 -137q-39 52 -39 110t53 118q80 90 197 92l4 4q176 -14 241 -137q23 -49 23 -99v-829q8 -8 41 -8q10 -4 17 -8.5t13 -6.5v1082h72v-164l277 201q131 -160 213 -160q14 -1 65 26v-20l-4 -4v-6l-2 -2q-2 -10 -18 -39
q-41 -66 -86 -78v-907q0 -23 30 -60q-66 16 -78 17h-8l-6 2h-8q-252 0 -453 -183q-81 81 -139 101q-104 33 -193 33t-153 -41l-10 10q8 8 8 22h8q84 148 191 174v803zM893.5 403q-5.5 0 -10.5 5l-30 5q-30 5 -46 9h-23v4h-10q-27 0 -57 -10h-12q-2 0 -3 -2h3q-4 -2 -13 -2
v-254l4 -4l9 -4l4 -5h-2q41 -29 77 -57h2l76 31q7 0 39 8v274q-2 2 -7.5 2zM823 801q43 0 78 14v209l-6 4q-45 14 -94 68l-109 -82v-195q37 -18 80 -18h51zM764 725q-44 0 -72 8v-246q33 0 47 9h15l4 2h30q62 -1 82 -9t23 -8l8 -4v260q-31 -12 -74 -12h-63z" />
    <glyph glyph-name="W" unicode="W" horiz-adv-x="1562" 
d="M1477 1165q22 0 71 17v-15q0 -76 -80 -100v-922q4 -14 19 -65q-6 -4 -13 -4h-25q-18 0 -30 4h-26l-4 2h-17q-264 0 -418 -170q-141 145 -266 154l-4 2q-137 -41 -235 -156q-92 102 -203 102q-78 0 -152 -43h2l-2 -4h-2l-4 -4l-14 6q45 166 202 203v317l-28 25h-4l-4 2h-9
l-4 2h-2q-45 0 -45 -47l2 -2h2v-6h2v-25l-16 8q-2 -2 -6 -2q-33 0 -58.5 32t-27.5 69l-2 4v16q0 174 194 174l4 -2h2v256q-25 94 -90 94q-55 0 -147 -124l-2 24q-2 4 -2 14l-2 5v10l-2 4v41q2 27 24 92q57 139 219 139q92 0 156 -63t70 -144l61 29v156h78v-123q0 -2 4 2h-2
q12 6 41 18q92 51 168 121q4 -6 20 -33q68 -115 168 -116v131h84v-119q68 12 154 96v-2q9 15 37 41q109 -121 164 -121zM561 154v882l-61 -26v-834q14 -12 59 -22h2zM1026 1024l-41 -14v-828q10 -8 33 -20l-2 2q10 -5 20 -19v2l-2 879h-2l-2 -2h-4zM1124 104q8 3 22 11
t32 10t57 12v269q-16 16 -53 16l-6 2h-9l-4 -2h-10l-2 -2h-6l-2 -4h-6l-13 -13v-299zM1196 803q25 0 39 10v238h-2q-12 0 -37 10l-25 12l-4 4l-4 2l-8 8l-31 -14v-260q8 -8 37 -8l4 -2h31zM649 418v-281q47 27 103 49v236q-27 4 -41 6h-9l-4 -2h-28q-8 -8 -21 -8zM1222 727
h-57q-23 0 -41 6v-248q41 10 54 15q12 -4 22 -5t35 -10v252q-10 -10 -13 -10zM711 803q14 0 41 16v203q-37 10 -68 43l-16 16l-19 -6v-256q0 -14 29 -14l2 -2h31zM736 506q4 0 16 -6v237h-4q-31 -8 -27 -4q-14 -4 -16 -6h-15v2h-16l-2 2q-11 0 -23 6v-237q8 0 43 6h44z" />
    <glyph glyph-name="X" unicode="X" horiz-adv-x="1257" 
d="M80 1036q0 106 68.5 178t175.5 78l2 6q147 -10 249 -155q39 -51 136 -242q46 90 97 222q50 132 50 134.5t2 4.5l21 59q76 -100 159 -100t177 69q-2 -127 -81 -208t-190 -81q-45 0 -84 21q-18 -61 -104 -234q0 -4 10 -24v-2l10 -31h31q23 0 112 12t122.5 16.5t50.5 8.5
l-95 -193q-6 -6 -16 -6l-123 17q-18 0 -24 2h-2q96 -250 145 -321.5t85 -97.5t77 -26q45 6 92 37l10 -10l-162 -256h-22q-68 0 -119 35q-142 85 -220.5 281t-103.5 274q-16 -30 -72 -166t-57 -154l-9 -21q-3 -7 -3 -9t-2 -4t-11 -28t-30.5 -78t-50.5 -124q-18 12 -51 27
l4 -3q-10 2 -62 24t-98 22t-104 -47h2l-9 -9l-6 -2q-6 -10 -28 -18q18 131 97 213t204 82h8q2 -2 24 -2q14 -6 33 -6q44 116 168 391q-90 0 -186 -14l-90 -15q-18 -6 -41 -6l84 205q104 -31 205 -31q-3 8 -7 19t-14 29t-20 42q-75 134 -97 160v-2q-72 88 -149 88
q-41 0 -81 -39t-61 -92q-20 35 -20 61q-2 2 -2 11l-4 10v18z" />
    <glyph glyph-name="Y" unicode="Y" horiz-adv-x="1087" 
d="M1073 1167v-18l-2 -6v-19q-2 -2 -2 -6q-2 -51 -57 -82v-874q0 -123 -160 -197q-26 -6 -92 -28q-10 0 -27 -5q-313 0 -313 -116q0 -33 41 -33q5 -1 41 11t43.5 20t48.5 34q106 66 209 66h8q28 -9 66 -16q115 -39 114 -156q0 -92 -65.5 -120t-96.5 -28l-4 -2h-6
q-39 0 -82 19v63q53 -16 80 -16t48.5 14.5t21.5 33.5t-11.5 31.5t-25.5 12.5q-57 0 -160 -72h2l-6 -6h-4q-100 -82 -190 -82h-9l-4 2q-80 5 -136 56t-56 125q0 123 135 176q-80 22 -123 63q-70 63 -70 156v346q-10 12 -41 27q-57 -12 -57 -54l-2 -4v-18q-72 20 -72 136
t93 151q21 7 79 16v268q-7 12 -53 41h-2l-2 2h-8q-35 0 -63.5 -35.5t-28.5 -76.5q-41 43 -41 113t67 137q74 68 156 67q201 0 205 -268q23 12 55 41v227h74v-170q71 39 225 170v25q109 -162 191 -162l51 16l4 4h14zM791 100v277h-3q-46 6 -116 16q-4 -2 -5 -2l-79 -16v-365
q6 -2 12 -2t16 -4h29q110 18 133 59q13 19 13 37zM784 1018q-43 0 -112 59q-25 -35 -84 -63v-230q14 -12 117 -12v-2h20q39 0 66 16v232h-7zM709 694h-45q-39 0 -76 11v-254h2q2 0 8 2t32 5t42 7h6l113 -14v258q-24 -15 -82 -15zM514 961q-37 -25 -53 -33l2 -846
q13 -46 51 -64v943z" />
    <glyph glyph-name="Z" unicode="Z" horiz-adv-x="1071" 
d="M713 199q96 0 200 -27l58 -16l35 41l53 -35l-195 -248q-56 34 -144 60t-112 26h-10l-104 4h-23q-219 0 -426 -82l-16 53q201 176 352 596q-48 -4 -131 -16q-71 -23 -115 -29l88 219q86 -27 217 -26q74 166 267 368q-215 -90 -365 -90t-207 58l-39 -39l-43 43l197 241
q18 -14 112 -57t232 -43q213 0 371 92l30 -41q-18 -18 -46.5 -58t-74.5 -101q-119 -204 -169 -367q24 0 86 8l88 10q21 5 39 7l4 2q17 0 39 4h18l-100 -203l-228 20q-34 -76 -104 -198q-98 -152 -223 -256q215 80 389 80z" />
    <glyph glyph-name="bracketleft" unicode="[" horiz-adv-x="735" 
d="M659 -12q-108 0 -217 -97q-135 111 -295 111q-14 0 -34 -4h-23q51 76 51 197v825q0 119 -51 199h23q25 -5 34 -5q162 0 295 113q102 -96 217 -96q33 0 84 14q-100 -154 -258 -153q-79 0 -125 16v-1002q57 18 125 19q162 0 258 -152q-51 15 -84 15z" />
    <glyph glyph-name="backslash" unicode="\" horiz-adv-x="657" 
d="M129 817h2l-2 205q-2 4 -5 14t-7 19v20q10 -4 13 -4h28q172 0 329 191q23 -23 39 -41q64 -68 131 -70l5 2h26q-16 -53 -68 -95t-129 -42t-120 45l-2 -4l-4 -2q-6 -6 -19 -8l-2 -3l2 -241l-2 -635q12 -6 33 -6q16 -10 33 -10l53 -35l45 47l43 -41l-219 -211
q-139 121 -254 121h-4l-4 -2q-21 0 -45 -8q25 96 106 133v524q-18 -6 -74 -6l-4 -2h-14q0 33 2 43v53l-2 6v12l-2 5v36q23 -10 92 -10z" />
    <glyph glyph-name="bracketright" unicode="]" horiz-adv-x="735" 
d="M602 2q-158 0 -295 -111q-102 96 -215 97q-35 0 -84 -15q94 152 258 152q63 0 123 -19v1002q-46 -16 -123 -16q-162 0 -258 153q49 -14 84 -14q117 0 215 96q137 -113 295 -113q12 0 37 5h23q-53 -78 -54 -199v-825q0 -121 54 -197h-23q-20 4 -37 4z" />
    <glyph glyph-name="asciicircum" unicode="^" horiz-adv-x="1189" 
d="M881 530l-279 715l-276 -715h-129l352 881h106l353 -881h-127z" />
    <glyph glyph-name="underscore" unicode="_" horiz-adv-x="1753" 
d="M1745 12q43 0 43 -22t-43 -21h-1720q-41 -1 -41 21t41 22h1720z" />
    <glyph glyph-name="grave" unicode="`" horiz-adv-x="729" 
d="M80 1135q59 62 104 182q50 -55 158 -124t213 -110l4 -12q-58 -65 -98 -172q-63 66 -180 135q-89 58 -201 101z" />
    <glyph glyph-name="a" unicode="a" horiz-adv-x="811" 
d="M635 -86q-49 0 -103 45q-51 51 -63 76l-139 -119h-13q-88 0 -172 51q-83 59 -102 135q-8 27 -8 76q0 162 186 289q-9 13 -41 48t-51.5 59t-44.5 53h2q-20 12 -63 59q147 53 235 160l10 -12l2 -5q16 -16 58 -77v2q33 -43 67 -45l11 4q4 -4 8 -4q41 0 125 110q7 14 28 35
v-19q0 -5 19 -24v2q53 -66 102 -65q23 0 78 18v-16q0 -88 -88 -140v-424q0 -39 28.5 -62.5t71.5 -25.5l2 2h23l-129 -180h-2l-2 -2h-8l-3 -2h-6l-2 -2h-16zM412 92q33 0 49 12h2l2 2v488q-29 0 -62 43q-45 -57 -112 -57l-4 -2h-45q-17 0 -23 2l230 -261l-52 -45l-127 138
q-38 -72 -38 -136t54 -124t126 -60z" />
    <glyph glyph-name="b" unicode="b" horiz-adv-x="831" 
d="M758 55q0 -20 35 -57q-77 22 -138 22q-195 0 -331 -106q-115 106 -244 106h-2l-2 -2h-13l-4 -2h-30q18 88 96 121l-2 891q-14 35 -29 55h-2l-6 7v2l-2 2v26l14 -14h4l2 -2q68 0 136 37q10 8 46 32.5t93 65.5q-39 -100 -39 -133v-422l254 170q66 -115 172 -115h6l39 13
l8 -11q-8 -59 -61 -100v-586zM537 602h-2q-17 0 -23 6q-55 27 -70 51l-102 -65l4 -434q66 -18 143 -80v-4q19 5 50 10v516z" />
    <glyph glyph-name="c" unicode="c" horiz-adv-x="655" 
d="M168 737q55 0 127 35t117 96q88 -115 161 -114q15 -1 60 28l12 -6q-4 -72 -58.5 -120t-136.5 -48t-122 58v-476q18 -10 47 -10q2 -2 54.5 -17t78.5 -46l53 63l49 -39l-186 -229q-141 119 -311 119q-57 0 -90 -37q20 98 92 147v467l-2 35q-6 12 -7 35q-10 25 -11 31t-5 24
v27l19 -19q4 -4 59 -4z" />
    <glyph glyph-name="d" unicode="d" horiz-adv-x="825" 
d="M778 92q0 -4 2 -6v-4l8 -21q0 -4 5 -14v-2l2 -2q0 -4 2 -8l14 -29q-66 39 -149 39q-174 0 -283 -133l-19 16q-4 4 -7 8.5t-7 8.5q-84 98 -199 98q-68 0 -120 -39q18 111 110 158v489q0 33 -41 90h25l4 -2h25l4 -2h6q152 0 254 72l-86 94q-82 85 -118 113t-67.5 51.5
t-109.5 114.5v28q18 -18 37 -18q2 -2 22 -2q103 0 211 55q14 -43 53 -96v2l265 -262q4 -8 4 -6l47 -49q8 -8 18 -18.5t23 -21.5t20 -18h-2q33 -31 66 -31l16 21v-31l-20 -24v-4q0 2 4 6q-17 -25 -19 -35v-586zM551 109l2 2v561l-82 84q-55 -53 -123 -68v-500
q24 -7 36.5 -9.5t39.5 -10.5q57 -29 98 -70l4 4h2l4 4h7l2 3h10z" />
    <glyph glyph-name="e" unicode="e" horiz-adv-x="692" 
d="M133 14q-51 0 -113 -10q8 20 17 29v-2q29 47 39 59t51 43v496q0 31 -33 102v29l19 -19h12l2 -2h6l6 -2h8q162 0 365 135q40 -148 166 -331l-2 -11q-41 -20 -177 -100t-159 -96v-154q121 -19 219 -65l49 51l51 -47l-186 -205l-20 10q-168 90 -320 90zM451 498
q-46 69 -95 194l-16 -4v-262z" />
    <glyph glyph-name="f" unicode="f" horiz-adv-x="657" 
d="M420 670q0 2 -12 2h-31q-16 0 -33 4v-508q12 -6 33 -6q16 -10 33 -10l53 -35l45 47l43 -41l-219 -211q-139 121 -254 121h-4l-4 -2q-21 0 -45 -8q25 96 106 133v524q-18 -6 -74 -6l-4 -2h-14q0 33 2 43v53l-2 6v12l-2 5v36q23 -10 92 -10h2l-2 205q-2 4 -5 14t-7 19v20
q10 -4 13 -4h28q170 0 329 193q23 -23 39 -43q64 -68 131 -70l5 2h16l8 -10q-14 -51 -66 -89t-129 -38t-120 45l-2 -4l-4 -2q-6 -6 -19 -8l-2 -3v-231l2 -2q129 0 143 8q25 0 50 6v-18l-2 -2v-6l-2 -4v-11q-6 -41 -7 -82v-10l2 -4v-20l13 -15h-27l-2 2l-86 13l-6 2h-2z" />
    <glyph glyph-name="g" unicode="g" horiz-adv-x="854" 
d="M745 213q0 -57 50 -121l2 -4h-2l10 -8l2 -4h-2q35 -47 35 -100.5t-112 -134.5q-50 -35 -76 -55t-57.5 -41t-43.5 -36q-23 -20 -50.5 -47t-56.5 -55q-14 6 -17 10t-13 12h2q-8 6 -18.5 13.5t-20.5 17.5h2q-4 4 -7 5t-14 7q-45 35 -124 35t-171 -55q37 109 129 160t200 51
t171 -45q74 68 74 100t-45 76q-43 35 -53 92q-127 -66 -215 -174q-96 125 -193 125q-24 1 -54 -9t-48 -10q0 33 31 77t53 52v525q-10 50 -25 69v23q29 -20 76 -21l6 -2h10q139 0 299 76l35 17q35 18 72 40q72 -121 168 -120h6q16 8 39.5 19t40.5 22q-8 -107 -95 -162v-420z
M532 612q-55 0 -98 60q-4 4 -9 13t-13 20v-3h-2v3q-25 -12 -43 -13q-24 -12 -39 -12v-502q12 -4 48 -9t79 -48l2 2l8 4l-2 -2l63 41q4 0 6 2v444z" />
    <glyph glyph-name="h" unicode="h" horiz-adv-x="872" 
d="M371 1081v-385l258 197q55 -113 116 -113q2 -2 21 -2t94 47v-28l-6 -35q0 -6 -2 -17q-23 -78 -72 -106l2 -533q17 -46 45 -81v2l4 -4v-3l5 -4l-11 -14q-39 20 -125 20t-94 -34l15 -15h-13q4 -6 15.5 -16t27.5 -25q101 -82 101 -162t-74 -126q-29 -18 -41 -19l-4 -2h-12
l-3 -2h-8q-61 0 -86 60q66 25 66 66t-14 55t-17 32q-37 58 -37 114t25 70v2q23 23 22 50v530q-20 0 -62 28t-46 34l-90 -68v-424q8 -2 18 -6t25 -8q60 -29 96 -74l-188 -172q-115 111 -209 110h-11q-12 0 -33 -10t-42 -10q29 113 129 156v858q0 39 -39 123q131 0 286 131
l17 -2q-12 -37 -26 -67t-15 -58v-2q-8 -46 -8 -58z" />
    <glyph glyph-name="i" unicode="i" horiz-adv-x="507" 
d="M379 739q14 0 65 29v-25q-4 -12 -4 -28q-31 -91 -98 -119v-436q0 -12 10 -33q18 -39 84 -39q23 0 53 12l9 -14l-176 -170q-75 5 -132 51q-56 47 -57 111v516q-31 2 -47 37l-29 -17l-28 41l6 11l2 -2l194 170v24q84 -119 148 -119zM420 1038v-18q0 -56 -48 -99.5
t-106 -43.5h-16v2h-21l-4 2q-78 0 -96 63l-33 -16l-26 45q17 17 69 43l-4 -4l115 86q53 -78 110 -78q10 4 17 5t16 5l4 4h2l2 2h2l3 2h14z" />
    <glyph glyph-name="j" unicode="j" horiz-adv-x="477" 
d="M467 -12q0 -66 -64 -133l-21 -21q-22 -22 -64 -59q-102 -91 -109 -146h2v-20h-59v16l-17 19v14q-1 41 21 71t51 70q59 68 59 103t-43 88q-4 4 -10.5 9t-18.5 17t-44 41q-12 6 -19 19v520q-29 2 -49 37l-27 -17l-28 39l6 13l2 -2l4 4l4 2q20 18 44.5 42t50.5 44l78 67
q7 6 13 13v22q84 -119 133 -119q29 0 80 29v-25q-4 -10 -6 -28q-33 -92 -96 -119v-426q0 -4 8 -6q119 -112 119 -178zM416 1040v-16q0 -58 -48 -101.5t-104 -43.5h-16v2h-21l-4 2q-80 0 -96 63l-33 -16l-26 47q17 17 51 34t54 33t75 56q53 -76 110 -76q33 8 37 12h2l2 2h2
l2 2h13zM145 -391h7q-4 -21 -11 10l4 -4v-6zM145 -385v4l2 -6z" />
    <glyph glyph-name="k" unicode="k" horiz-adv-x="841" 
d="M773 86q36 0 48 12l10 -14l-196 -182q-96 31 -143 127q-15 31 -48 139t-61 166l-45 -31v-149q4 -4 8 -4t8 -4t8.5 -5.5t11.5 -5.5t18 -11t21.5 -15.5t18.5 -19.5t19 -26l-168 -157q-88 113 -232 114l-2 -2h-18q0 74 84 121v873q0 35 -47 78v28l18 -18h12l2 -2h4
q92 0 261 133l10 -10q-10 -16 -10 -27q-8 -8 -9 -23q-18 -23 -18 -84v-407l246 180q51 -133 168 -285l-197 -126q26 -45 74 -150q10 -27 18 -49.5t28 -68.5t41 -70.5t57 -24.5zM532 520q-29 41 -86 139l-108 -73v-195z" />
    <glyph glyph-name="l" unicode="l" horiz-adv-x="489" 
d="M127 1102q72 0 225 123l10 -8q-8 -16 -25 -81t-18 -98v-874q25 -12 66 -43q-4 4 4 0q10 -10 12 -15l7 -6l30 29l41 -53l-203 -162q-106 92 -251 127q47 76 98 102v836l-12 63q-5 16 -5 19l-6 8q0 6 -4 14v27q16 -8 31 -8z" />
    <glyph glyph-name="m" unicode="m" horiz-adv-x="1316" 
d="M1244 94q26 0 36 10h4l4 5h27l-213 -213h-12q-80 0 -108 53t-28 76v550h-4q2 -2 -4 1.5t-36 15.5t-58 49l-80 -59v-439q14 -6 44 -26.5t83 -55.5l-176 -170q-121 109 -203 109q-35 0 -71 -25q20 88 108 152v432q0 63 -57 103l-133 -103v-416q8 -4 17 -7t41 -15t54 -53
l-182 -177q-78 109 -178 109q-47 0 -78 -18q10 41 42 82.5t69 58.5v444q0 53 -121 82v15l196 202q127 -55 158 -196l246 196q121 -70 147 -182l221 172q85 -111 135 -111t105 37v-34q-10 -65 -23.5 -85t-35.5 -42v-471q0 -20 19 -38t45 -18z" />
    <glyph glyph-name="n" unicode="n" horiz-adv-x="909" 
d="M567 53v537q-8 0 -12 2h-4l-2 2l-8 4q-56 14 -88 59l-84 -67v-430q53 -21 77 -41q40 -24 72 -68l-190 -137q-111 104 -226 104h-6l-2 -2h-10l-2 -2h-8l-2 -2h-21q16 80 96 127v461q-37 61 -102 62l-4 2h-10v14l209 209q69 -61 98 -105t31 -102l241 203q86 -119 133 -119
q23 0 105 35v-29l-2 -4v-21l-2 -4q0 -49 -56 -104v-477q0 -41 62 -41h8l2 2h17l2 2h26l-176 -213q-55 4 -109 45t-53 98z" />
    <glyph glyph-name="o" unicode="o" horiz-adv-x="856" 
d="M762 158q0 -70 55 -121q-78 16 -125 16q-236 0 -383 -141q-111 115 -198 115q-16 0 -41 -7l-41 -6q8 88 98 131l-2 535l-6 16q-2 0 -2 4l-4 5v4q-11 11 -11 17t-2 5v-2l-2 4v23q53 -17 117 -17q217 0 391 144q89 -131 170 -131q22 0 66 26v-26l-2 -4v-11l-2 -4
q0 -12 -8.5 -25.5t-20.5 -33.5q-35 -40 -47 -45v-471zM543 119v495q-70 2 -119 78q-35 -20 -78 -20v-494q16 -10 39 -10q13 -6 30 -12t70 -56l25 13q12 0 31 6h2z" />
    <glyph glyph-name="p" unicode="p" horiz-adv-x="917" 
d="M851 754q20 0 32 10h4l4 4h14v-16q0 -35 -29.5 -74t-64.5 -49v-527q0 -12 6 -20q0 -10 21 -39l6 -12q-43 0 -58 8h-10q-158 0 -321 -125l-9 6l-2 4q-29 34 -61 60v-164q0 -57 41 -119q-24 8 -68 8t-155 -53v2q-30 -20 -76 -43l-8 10q39 53 39 70.5t2 28.5v8l2 4v301h-8
q-10 -4 -21.5 -7t-26.5 -7l-26 -15q-11 0 -47 -24q0 57 36.5 116.5t92.5 83.5v408q0 27 -28 43t-60 16l-2 -2h-17l-2 -2h-20v17l219 231q86 -41 110 -100t23 -152l305 244q27 -43 68 -87t73 -44q2 -2 22 -2zM588 627q-35 0 -72 37l-133 -107l6 -352q15 -3 62 -23
q80 -41 122 -102l15 6v541z" />
    <glyph glyph-name="q" unicode="q" horiz-adv-x="847" 
d="M180 713q206 0 426 139q88 -129 158 -129q33 0 49 12h2l4 4h6l9 -8q-8 -94 -91 -139v-795q0 -20 21 -114q10 -35 35 -68l-11 -12q-14 8 -22 8q-49 25 -68 24l-14 5q-90 37 -160 36q-10 0 -14 -4l-10 11l16 47q14 37 14 80v247l-211 -143q-121 109 -204 109q-9 0 -90 -27
q4 37 29.5 81t56.5 64v482q-14 62 -17.5 86t-5.5 32q25 -25 47 -24q4 -4 45 -4zM326 647v-469q26 -14 63 -28t68 -44l73 54v424q-51 10 -100 73q-6 0 -6 7l-6 6q-12 -4 -17 -4l-14 -4q-27 -14 -59 -15h-2z" />
    <glyph glyph-name="r" unicode="r" horiz-adv-x="708" 
d="M696 737q0 -78 -47 -129t-113 -51t-122 53l-56 -57v-369q6 -3 38 -8t75 -47l37 37l45 -49l-211 -205q-115 109 -215 108q-20 0 -35.5 -5t-32.5 -9l-26 -10q0 63 63 127l33 27l6 6h6l2 2v424q-36 52 -78 61.5t-49 11.5q127 74 199 213q109 -55 143 -196l19 24q19 19 43 47
q39 39 86 113v6l16 2q37 -117 109 -116q25 0 65 36v-47z" />
    <glyph glyph-name="s" unicode="s" horiz-adv-x="817" 
d="M121 734v24q30 -27 115 -27q2 -2 20 -2q94 0 182 47q8 4 82 78q66 -76 124 -76t95 60l56 4l8 -11q-53 -164 -225 -339l192 4l-4 -27l-2 -2v-4l-4 -4v-4l-10 -35v-348q0 -4 2 -6v-7q4 -4 4 -6l2 -10l-2 4q-4 4 3.5 -8.5t18.5 -34.5l-30 4q-55 0 -68 8q-31 0 -37 2h-12
q-156 0 -256 -106l-60 59q-33 29 -63 29q-12 6 -35 6q-94 0 -131 -90h-59q31 138 168 307q14 14 23 24.5t22 22.5l-136 6l15 15l-2 -6q18 25 18 51l2 4l-2 356l-4 15l-6 14v2q-4 4 -4 7zM317 170q106 0 183 -94l28 10h9l2 2v258l-4 4h-105l-106 -106q-14 -14 -33 -36
t-45 -48q63 10 71 10zM358 666v-258h23q24 15 123 114q70 74 102 109q-35 -15 -84 -15t-125 60q-6 -2 -8 -4h-8q-12 -6 -23 -6z" />
    <glyph glyph-name="t" unicode="t" horiz-adv-x="542" 
d="M498 748h2q0 -45 12 -119l-25 12l-2 2h-2q-50 17 -121 21v-490q14 -14 35 -14q13 -4 17 -8t8 -6t7 -2.5t5 -2.5h-2q20 -13 39 -26l21 22l43 -49l-199 -176q-111 104 -213 104q-49 0 -74 -36v28q0 8 24 62t74 80v514h-36q-20 -12 -52 -19l-4 -4h-4l-22 -12v14q0 8 2 12v7
l2 4q0 8 2 12v16q0 11 4 27v12l-2 6v21q-8 23 -8 76q45 -23 73 -29q4 2 29 2h16v94l-2 4v21q-8 24 -10 28v2q-4 4 -4 19l14 4l2 -4h11v-2q119 0 225 131v-29l-10 -35v-2l-11 -61v-170h66l4 -2q35 0 76 29l-2 -23q-2 -4 -2 -12q-6 -12 -6 -53z" />
    <glyph glyph-name="u" unicode="u" horiz-adv-x="948" 
d="M421 157q2 0 3 -1q-2 1 -3 1zM811 739q18 0 31 4l4 5l2 2h4l2 2h4l2 2h14q0 -123 -102 -154v-401q0 -104 98 -105h4l5 2q16 0 47 13l8 -15l-191 -180q-160 39 -182 172q-4 -2 -4.5 -4t-16.5 -11t-78 -55q-64 -46 -122 -104q-129 119 -215 119q-41 0 -68 -21
q18 104 90 142v438q-10 27 -43 45l2 -2q-10 4 -24 6t-22 5t-11 3h-18v15l198 204q139 -72 140 -186v-502q11 -9 35 -16t71 -43l4 4q8 4 9 6t6 4v-2l41 33l24 12l-4 432h-2l-4 2l-6 2q-15 15 -23 25l-41 -21l-39 58q66 20 222 176q104 -111 149 -111z" />
    <glyph glyph-name="v" unicode="v" horiz-adv-x="862" 
d="M770 102q0 -18 6 -26l27 -66l-4 2v-12q-49 0 -58 2h-12q-79 0 -223 -45t-199 -45t-86 12q-82 31 -82 156v520q0 16 -24.5 37.5t-42.5 21.5h-4l-7 3h-14l-4 2h-12v14l215 172q66 -14 102 -88q10 -18 10 -45v-567q0 -45 35 -71t97 -26t61 45v494q-41 12 -64 47l-28 -18
l-33 51l221 168q82 -109 152 -109q20 0 49 19v-27l-2 -4v-12l-2 -5q0 -41 -74 -98v-502z" />
    <glyph glyph-name="w" unicode="w" horiz-adv-x="1255" 
d="M1196 737v2q4 2 8 2t13 2q4 5 14 9l10 -9q-8 -92 -88 -139v-498q0 -31 21 -59q0 -2 22 -35q-37 0 -43 2h-4q-147 0 -295 -67q-12 -4 -29.5 -13.5t-44.5 -21.5q-61 4 -119.5 44t-93.5 95q-51 -33 -78 -46.5t-53 -31.5v2l-84 -61q-124 111 -237 111h-4l-5 -2q-17 0 -40 -9
q20 72 84 119l2 4h2v443q-31 61 -74 61h-4l-6 2h-17l-4 2h-6l-16 10l206 207q61 -23 102.5 -74t41.5 -114v-508q10 -8 33 -8q70 -28 96 -52q12 13 22 17t23 12v457q0 29 -35 52.5t-72 23.5v16l209 180q84 -43 107 -100q2 -4 3 -10t4 -12t7 -23v-535q0 -72 68 -104
q6 -4 20.5 -8.5t18.5 -8.5h22q37 0 37 39v496q-29 8 -61 47l-25 -10l-31 49l226 166q55 -115 137 -115q4 0 8 2h2z" />
    <glyph glyph-name="x" unicode="x" horiz-adv-x="882" 
d="M160 -6q-39 0 -90 -37q4 2 -1.5 -4t-11.5 -12l-24 -27v25l-2 2v6q0 93 65 163t162 70h21l38 -14l60 145l-8 19q-39 -2 -193 -21q6 33 19 60l16 86l2 2v16q37 -18 90 -18h12q-94 205 -239 252v14l213 149q78 -31 129 -127q10 -16 28.5 -55t47.5 -100l112 268l15 -2
q0 -23 57 -66q12 -8 38 -8t48 17h-2q10 10 14 12l4 4v-2q4 6 13.5 21.5t25.5 39.5v-22q0 -2 3 -11t7 -36l2 -4v-13q0 -74 -50 -142t-124 -66q-25 0 -65 14l-51 -123l6 -14h27q26 0 165 12q-30 -103 -20 -123v-33h-12l-5 1l-71 5q-9 2 -15 2h-20q49 -131 131 -178v2
q31 -18 68 -18l51 16h4l4 4h23l-185 -239q-140 20 -198 136t-68 146l-125 -280q-76 86 -141 86z" />
    <glyph glyph-name="y" unicode="y" horiz-adv-x="880" 
d="M772 74q0 -124 -123 -141t-135 -17h-16q-2 0 -19 -2q-217 -16 -217 -98q0 -31 39 -31q19 1 123 59t181 58t128 -45t51 -109t-44 -102.5t-104 -38.5t-77 16v70q33 -18 64 -19h2l4 2h6q12 0 28.5 10.5t16.5 22.5q0 20 -27 21l-4 2h-2q-47 0 -133 -54t-116 -60t-69 -7
q-75 0 -129.5 50t-54.5 116v10h2q4 104 105 154q-41 18 -82 57t-41 86v534q0 47 -98 58v14l219 172q32 -18 64 -60t32 -65l2 -4v-12l2 -2v-80l307 207q63 -86 140 -86h4l2 2q35 0 63 22v-32l-2 -4v-11l-2 -2q0 -25 -28 -62.5t-62 -51.5v-547zM547 41v559q-8 2 -16.5 6
t-18.5 8l-35 17l-125 -86v-492q0 -41 72 -55h8l17 -4h12l4 2q29 0 55.5 11t26.5 34z" />
    <glyph glyph-name="z" unicode="z" horiz-adv-x="753" 
d="M525 483h28l86 9l2 2h10l2 2h27q-62 -83 -62 -148l3 -2v-24q-5 0 -43 5t-75.5 7t-90.5 8l-84 -125q104 45 170 45t120 -52t54 -127t-43 -138q-18 -29 -49 -67t-32 -40t-5 -6v2l-37 -44q-10 -11 -14 -19l-150 -177q-107 95 -178 95q-45 0 -94 -37h2q-13 -13 -25 -19h-2
l-18 -20q14 98 84.5 178t175.5 80q70 0 129 -55q59 66 59 153v4l-2 2v11q0 35 -32 65t-50 41.5t-47 11.5t-88 -36q-53 -41 -80 -76l-41 -64l-63 43l247 367h-47q-111 0 -157 -21q55 74 55 193q49 -31 152 -31h73q4 2 21 2l110 166q-100 -63 -226 -63t-251 104l191 197
q104 -131 225 -131q96 0 176 80v-3l37 43l67 -30l-239 -359q8 -2 19 -2z" />
    <glyph glyph-name="braceleft" unicode="{" horiz-adv-x="997" 
d="M455 811q0 25 -28 171t-28 214q1 144 135 246t302 108v-65q-106 -25 -160 -101t-54 -157t14 -189q13 -108 13 -155q0 -152 -119 -252q-70 -57 -176 -103q113 -55 176 -106q119 -100 119 -248q0 -50 -13 -160t-13 -188t52 -152t161 -100v-66q-168 6 -302 108t-135 247
q0 58 28 213t28 170q-1 86 -65 154t-154 98v61q219 72 219 252z" />
    <glyph glyph-name="bar" unicode="|" horiz-adv-x="358" 
d="M156 -432v2046h61v-2046h-61z" />
    <glyph glyph-name="braceright" unicode="}" horiz-adv-x="997" 
d="M614 -137q0 -141 -134 -245t-302 -110v66q111 25 162 104q51 74 51 154t-14.5 184t-14.5 158q0 145 121 248q44 41 172 106q-111 49 -172 103q-121 102 -121 252q0 54 14.5 158.5t14.5 184.5t-53 157t-160 102v65q168 -6 302 -109t134 -245q0 -74 -28 -214t-27 -171
q0 -180 219 -252v-61q-98 -32 -153 -97q-66 -66 -66 -155q-1 -43 27 -176t28 -207z" />
    <glyph glyph-name="asciitilde" unicode="~" horiz-adv-x="1196" 
d="M882 346q-64 0 -287 74t-273 74q-122 0 -164 -160h-109q36 128 70 168q84 100 198 100q57 0 291 -74t277 -73q119 0 162 161h108q-43 -170 -149 -235q-60 -35 -124 -35z" />
    <glyph glyph-name="exclamdown" unicode="&#xa1;" horiz-adv-x="468" 
d="M37 10l-10 8q0 62 36.5 101t65.5 67l59 641h60l88 -647q37 -22 70 -37l2 -4h4q30 -30 57 -63q-82 0 -225 -154v-20q-96 121 -148 121q-4 -1 -59 -13zM61 1034l158 162l160 -162l-160 -166z" />
    <glyph glyph-name="cent" unicode="&#xa2;" horiz-adv-x="733" 
d="M530 -70h-63v160q-166 100 -281 100q-37 0 -67 -18l-13 18q23 49 82 93v462q0 94 -43 166l43 -2q10 -2 20 -2h13q143 0 246 94v150h63v-168q51 -53 119 -53q31 0 64 24l10 -18q-55 -137 -193 -145v-506q36 -12 43 -19l66 70l45 -43l-154 -172v-191zM393 330q27 -4 74 -19
v494q-30 14 -74 55v-530z" />
    <glyph glyph-name="sterling" unicode="&#xa3;" horiz-adv-x="966" 
d="M358 33q-141 0 -286 -60l-27 58q111 73 135 104v-2q31 39 31 123v221h-33q-74 0 -141 -37l29 101q14 43 14 69t-19 56q45 -14 109 -15h41v103q0 96 55 170q43 63 171 154t218 91q143 0 248 -90l-196 -219l-41 33l45 55q-96 90 -183 90q-96 0 -96 -108v-279h135
q78 0 138 33q0 -14 -1 -20l-25 -80q-13 -43 -13 -70t16 -51q-45 14 -104 14h-146v-102q0 -115 -57 -203q104 33 205 33q170 0 315 -64l37 47l49 -41l-186 -233q-180 119 -437 119z" />
    <glyph glyph-name="currency" unicode="&#xa4;" horiz-adv-x="1196" 
d="M143 688q0 149 84 266l-133 136l109 110l135 -133q125 84 268 84t264 -84l136 133l106 -113l-133 -133q90 -121 90 -265t-88 -265l133 -135l-108 -109l-136 133q-113 -86 -263 -86t-269 86l-133 -131l-109 109l133 131q-86 117 -86 266zM299 690q0 -127 90 -217t214 -90
t218 90q90 94 90 218t-90 214q-94 90 -218 90t-214 -89t-90 -216z" />
    <glyph glyph-name="yen" unicode="&#xa5;" horiz-adv-x="1128" 
d="M418 8q-70 0 -127 -31l-23 25q91 123 213 170v344h-245v78h231l-25 57h-206v78h172q-55 117 -99 174q-41 49 -100 49q-29 0 -72 -32l-24 24q70 94 139 225q121 -6 196 -93t179 -351q99 218 180 451q82 -80 158 -80t120 51l27 -17q-27 -102 -89 -163.5t-153 -61.5
q-51 0 -84 13q-56 -139 -79 -189h196v-78h-215v-57h215v-78h-215v-336q51 -12 105 -53l45 41l36 -35v-12q-78 -70 -217 -209q-119 96 -239 96z" />
    <glyph glyph-name="brokenbar" unicode="&#xa6;" horiz-adv-x="391" 
d="M152 813v563h102v-563h-102zM152 -199v561h102v-561h-102z" />
    <glyph glyph-name="section" unicode="&#xa7;" horiz-adv-x="892" 
d="M20 630q0 73 125 204q-59 37 -59 97q0 123 260 365q121 109 197 109q164 0 254 -127l-174 -231q-27 145 -164 145q-92 0 -146 -53q-41 -45 -41 -73t38 -46t130 -38t156 -36t88.5 -22t52.5 -13q137 -41 137 -125q0 -36 -6 -45l-44 -66q-38 -57 -70 -104q76 -45 76 -123
t-152 -268q-180 -223 -363 -223q-141 0 -254 102l187 258q14 -141 176 -141q111 0 169 46t58 87t-41 59q-66 30 -266 78t-248 70q-76 41 -76 114zM600 707q-6 0 -118 26t-255 68q-23 -23 -22 -41q0 -45 139 -78t324 -82q23 39 22 49q0 29 -90 58z" />
    <glyph glyph-name="dieresis" unicode="&#xa8;" horiz-adv-x="808" 
d="M762 1067v-12q-88 -74 -162 -156q-74 82 -166 162q80 66 166 164q76 -88 162 -158zM199 1225q78 -90 159 -158v-12q-98 -89 -159 -156q-67 78 -164 162q82 70 164 164z" />
    <glyph glyph-name="copyright" unicode="&#xa9;" horiz-adv-x="1576" 
d="M27.5 722.5q0.5 321.5 226.5 545.5t544 224t541 -224q227 -220 227 -542t-224 -546t-545.5 -224.5t-545.5 222.5t-223.5 544.5zM796 1389q-272 0 -470 -195q-195 -199 -195 -472t194.5 -468t470.5 -195t468 195q196 193 196 468t-196 471t-468 196zM510 727
q0 -152 92 -250t219 -98q90 0 159 54t93 153h111q-25 -139 -124 -227.5t-239 -88.5q-182 0 -304 128t-122 327t113 332q117 131 297 131q147 0 254 -94q95 -88 112 -242h-106q-20 121 -96 174t-160 53q-135 0 -217 -100v2q-82 -102 -82 -254z" />
    <glyph glyph-name="guillemotleft" unicode="&#xab;" horiz-adv-x="802" 
d="M696 82q-42 0 -100 -8q-4 33 -31 67l-153 211q-29 34 -50 47l16 17q17 16 34 35v-2l153 208q28 42 31 66q46 -4 89 -4t87 4h35q-47 -39 -88 -96l-172 -228l172 -227q35 -47 88 -98q-69 8 -111 8zM360 82q-43 0 -106 -8q-2 33 -29 67l-155 211q-31 37 -47 47q6 6 18 19.5
t29 32.5v-2l155 208q27 48 29 66q46 -4 89 -4t87 4h35q-43 -35 -88 -96l-170 -228l170 -227q37 -49 92 -98q-66 8 -109 8z" />
    <glyph glyph-name="logicalnot" unicode="&#xac;" horiz-adv-x="1196" 
d="M1010 248v362h-924v111h1038v-473h-114z" />
    <glyph glyph-name="registered" unicode="&#xae;" horiz-adv-x="780" 
d="M795 1025q0 -165 -116.5 -281t-280.5 -116t-280 116t-116 281t117 280t281 115t278 -117q117 -113 117 -278zM590 1111q0 -60 -45 -97q35 -39 38 -91.5t6 -66.5t23 -43q86 90 86 211t-88 213q-92 88 -214 88t-212 -90q-86 -92 -86 -214t88 -210t212 -88t202 78h-88l-6 4
q-16 33 -23 110q-4 53 -98 54h-51v-168h-98v450h163q102 0 146 -37q45 -43 45 -103zM395 1157h-61v-94h65q92 0 93 49q0 31 -29 41q-21 4 -68 4z" />
    <glyph glyph-name="plusminus" unicode="&#xb1;" horiz-adv-x="1196" 
d="M1124 514h-460v-387h-117v387h-461v113h461v385h117v-385h460v-113zM86 -25v111h1038v-111h-1038z" />
    <glyph glyph-name="acute" unicode="&#xb4;" horiz-adv-x="729" 
d="M547 1317q29 -96 96 -172l-2 -15q-97 -34 -202 -100t-171 -131q-35 103 -104 180q170 69 261 137t122 101z" />
    <glyph glyph-name="paragraph" unicode="&#xb6;" horiz-adv-x="1230" 
d="M1106 1313h-115v-1721h-117v1721h-225v-1721h-117v881q-201 16 -315 145q-111 129 -111 322q0 260 193 399q117 86 328 86h479v-112z" />
    <glyph glyph-name="guillemotright" unicode="&#xbb;" horiz-adv-x="802" 
d="M136 719q43 0 87 4q2 -16 10.5 -31.5t18.5 -34.5l156 -208q26 -36 45 -50q-10 -6 -45 -49v2l-156 -211q-27 -35 -29 -67q-61 8 -101 8t-110 -8q45 45 86 98l170 227l-170 228q-45 61 -86 96h35q46 -4 89 -4zM476 719q43 0 87 4q3 -21 31 -66l154 -208q23 -33 47 -50
q-14 -12 -47 -49v2l-154 -211q-29 -35 -31 -67q-97 13 -215 0q65 56 92 98l170 227l-170 228q-35 55 -88 96h35q46 -4 89 -4z" />
    <glyph glyph-name="onequarter" unicode="&#xbc;" horiz-adv-x="1513" 
d="M1116 166h-340q33 27 33 55v37q0 39 -23 61q207 159 396 416q66 -84 108 -84q14 0 37 13l10 -29q-31 -47 -55 -64v-340h88v-65h-88v-82l31 -16l33 28l36 -37v-12l-135 -133q-86 61 -146 61t-91 -18l-19 18q53 74 125 101v90zM227 418q-33 0 -75 -21l-29 23q51 80 127 110
v437q0 45 -17.5 57t-74.5 16v47q125 23 204 84q51 -47 52 -182v-450q32 -9 51 -25l31 27l30 -35v-12q-57 -51 -137 -148q-88 72 -162 72zM342 7v-9q0 -8 4 -18l-205 -50l-6 13q122 100 193 190l682 848v-2q68 86 67 102l-6 23l205 49l6 -12q-104 -88 -190 -195l-682 -846v2
q-68 -86 -68 -95zM948 231h168v324q-106 -122 -168 -178v-146z" />
    <glyph glyph-name="onehalf" unicode="&#xbd;" horiz-adv-x="1515" 
d="M1118 -23q-105 0 -209 -61l-28 16q18 27 18 95v116q0 92 31 128t137 75q76 33 92 45q39 29 39 84v127h-4q-52 -59 -137 -59q-106 0 -170 125l24 22q25 -18 58 -18q70 0 129 61q115 -78 295 -82q-31 -49 -31 -110v-90q0 -53 31 -93q-162 -8 -310 -77q-72 -29 -90 -57
t-18 -101v-86q113 94 210 94t181 -53l29 28l32 -30v-13q-75 -84 -122 -149q-82 63 -187 63zM174 418q-33 0 -76 -21l-26 23q49 80 127 110v431q0 47 -17.5 58t-77.5 13v55q125 23 205 84q53 -47 53 -182v-450q31 -9 52 -25l28 27l31 -35v-12q-89 -89 -139 -148
q-88 72 -160 72zM295 4q0 -12 6 -24l-205 -50l-6 13q118 97 191 190l682 848q72 84 71 100l-6 23l205 49l6 -12q-114 -97 -190 -195l-682 -846q-72 -84 -72 -96z" />
    <glyph glyph-name="threequarters" unicode="&#xbe;" horiz-adv-x="1515" 
d="M1166 -25q-60 0 -97 -18l-18 18q57 74 125 101v90h-336q29 29 28 55v37q0 37 -20 61q211 162 395 416q66 -84 109 -84q12 0 34 13l15 -27q-37 -53 -60 -68v-338h93v-65h-93v-82l33 -16l33 28l37 -37v-12l-135 -133q-83 61 -143 61zM311 819q27 0 101 29v190l-17 4
q-49 -47 -112 -47q-104 0 -185 111l29 18q20 -12 39 -12q68 0 119 59q106 -82 207 -81q43 0 114 16q-31 -47 -31 -115v-80q0 -53 29 -94q-129 -6 -219 -35q71 -22 221 -26q-31 -37 -31 -92v-127q0 -69 31 -113q-47 8 -98 8q-106 0 -217 -86q-59 55 -119 55t-98 -30l-29 14
q100 143 227 143q70 0 125 -49l15 4v232q-90 25 -104 25t-79 -35v141q55 -27 82 -27zM1190 1075v9q0 10 -4 20l205 49l6 -12q-113 -90 -193 -195l-682 -846v2q-70 -86 -70 -98t7 -24l-203 -50l-6 13q117 100 188 190l684 848v-2q68 86 68 96zM1008 231h168v324
q-106 -122 -168 -178v-146z" />
    <glyph glyph-name="questiondown" unicode="&#xbf;" horiz-adv-x="749" 
d="M423 -84q-128 0 -262.5 94t-134.5 220t116 229.5t237 103.5q17 17 37 97t20 137l64 -4q6 -12 7 -17l9 -45q6 -5 35 -99t55 -120v-2h6v-23q-51 14 -120 15q-248 0 -248 -285q0 -55 24 -125t70 -69q66 -1 122 73t56 156l223 -107q-23 -109 -105.5 -169t-210.5 -60z
M311 1018l160 162l162 -162l-162 -166z" />
    <glyph glyph-name="Agrave" unicode="&#xc0;" 
d="M254 8q-100 0 -176 -41q-8 -2 -21 -10q-2 -10 -26 -20v16l-2 2v6q0 129 217 225l22 8q23 7 51 17l220 526q-53 59 -99 60q-72 0 -114 -84q-35 35 -35 73t16 64h-2q80 154 221 154q60 0 86 -23q2 0 2 -2l15 -8l-2 2l8 -4l2 2v2l6 12q0 2 2 6v4l2 4q0 56 -94 84h-4l-23 4
q-4 0 -10 3h-2q-49 0 -63 -9q-39 0 -121 -61v27q0 41 41 102q88 145 278 145h10q9 -2 29 -2t74 -24t78 -82l336 -893q23 -63 28 -70q33 -47 82 -47q11 0 115 29l-191 -301q-129 39 -190 143q-39 66 -39 80q-4 4 -90 260h-416l-67 -166q27 -4 53 -8t55 -8q60 -18 107 -49
l32 41l52 -43l-215 -242q-74 74 -187 90q-43 6 -51 6zM612 1364q-113 126 -389 244q66 74 107 186q70 -70 183 -140t196 -100l4 -14q-63 -68 -101 -176zM694 922l-131 -320h246z" />
    <glyph glyph-name="Aacute" unicode="&#xc1;" 
d="M254 8q-100 0 -176 -41q-8 -2 -21 -10q-2 -10 -26 -20v16l-2 2v6q0 129 217 225l22 8q23 7 51 17l220 526q-53 59 -99 60q-72 0 -114 -84q-35 35 -35 73t16 64h-2q80 154 221 154q60 0 86 -23q2 0 2 -2l15 -8l-2 2l8 -4l2 2v2l6 12q0 2 2 6v4l2 4q0 56 -94 84h-4l-23 4
q-4 0 -10 3h-2q-49 0 -63 -9q-39 0 -121 -61v27q0 41 41 102q88 145 278 145h10q10 -2 23.5 -3t23.5 -3q102 -21 134 -102l336 -893q23 -63 28 -70q33 -47 82 -47q11 0 115 29l-191 -301q-129 39 -190 143q-39 66 -39 80q-4 4 -90 260h-416l-67 -166q27 -4 53 -8t55 -8
q60 -18 107 -49l32 41l52 -43l-215 -242q-74 74 -187 90q-43 6 -51 6zM1077 1610l-4 -15q-151 -56 -248.5 -130t-130.5 -109q-41 115 -106 186q110 45 218 111t171 133q37 -106 100 -176zM694 922l-131 -320h246z" />
    <glyph glyph-name="Acircumflex" unicode="&#xc2;" 
d="M254 8q-100 0 -176 -41q-8 -2 -21 -10q-2 -10 -26 -20v16l-2 2v6q0 129 217 225l22 8q23 7 51 17l220 526q-53 59 -99 60q-72 0 -114 -84q-35 35 -35 73t16 64h-2q76 154 221 154q60 0 86 -23q2 0 2 -2l15 -8l-2 2l8 -4l2 2v2l6 12q0 2 2 6v4l2 4q0 56 -94 84h-4l-23 4
q-4 0 -10 3h-2q-49 0 -63 -9q-39 0 -121 -61v27q0 41 41 102q88 145 278 145h10q10 -2 23.5 -3t23.5 -3q102 -21 134 -102l336 -893q23 -63 28 -70q33 -47 82 -47q11 0 115 29l-191 -301q-129 39 -190 143q-39 66 -39 80q-4 4 -90 260h-416l-67 -166q27 -4 53 -8t55 -8
q60 -18 107 -49l32 41l52 -43l-215 -242q-74 74 -187 90q-43 6 -51 6zM649 1778q178 -197 291 -279l-44 -49q-44 -49 -73 -84q-70 87 -174 168q-86 -68 -176 -166q-67 81 -115 131q96 69 291 279zM694 922l-131 -320h246z" />
    <glyph glyph-name="Atilde" unicode="&#xc3;" 
d="M254 8q-100 0 -176 -41q-8 -2 -21 -10q-2 -10 -26 -20v16l-2 2v6q0 129 217 225l22 8q23 7 51 17l220 526q-53 57 -99 58q-70 0 -114 -82q-35 35 -35 73t16 64h-2q78 152 221 151q60 0 86 -22q2 0 2 -2l15 -8l-2 2l8 -4l2 2v2l6 12q0 2 2 6v4l2 4q0 57 -94 86h-4l-23 4
q-4 0 -10 3h-2q-49 0 -63 -9q-39 0 -121 -63v26q0 43 41 105q90 145 278 145h10q10 -2 31 -3.5t58 -16.5q68 -31 92 -90l336 -891q23 -63 28 -70q33 -47 82 -47q11 0 115 29l-191 -301q-129 39 -190 143q-39 67 -39 80q-4 4 -90 260h-416l-67 -166q27 -4 53 -8t55 -8
q60 -18 107 -49l32 41l52 -43l-215 -242q-74 74 -187 90q-43 6 -51 6zM784 1366q-66 0 -145 23q-66 27 -123 27t-135 -54q35 91 43 209q66 27 124 27t145 -25t125 -25t153 51q-41 -87 -60 -204l-4 -6q-57 -23 -123 -23zM694 922l-131 -320h246z" />
    <glyph glyph-name="Adieresis" unicode="&#xc4;" 
d="M254 8q-100 0 -176 -41q-8 -2 -21 -10q-2 -10 -26 -20v16l-2 2v6q0 129 217 225l22 8q23 7 51 17l220 526q-51 57 -99 58q-72 0 -114 -82q-35 35 -35 73t16 64h-2q80 154 221 154q60 0 86 -23q2 0 2 -2l15 -8l-2 2l8 -4l2 2v2l6 12q0 2 2 6v4l2 4q0 55 -94 84h-4l-23 4
q-4 0 -10 3h-2q-49 0 -63 -9q-39 0 -121 -63v26q0 43 41 105q90 145 278 145h10q10 -2 31 -3.5t58 -16.5q68 -31 92 -88l336 -893q23 -63 28 -70q33 -47 82 -47q11 0 115 29l-191 -301q-129 39 -190 143q-39 67 -39 80q-4 4 -90 260h-416l-67 -166q27 -4 53 -8t55 -8
q60 -18 107 -49l32 41l52 -43l-215 -242q-74 74 -187 90q-43 6 -51 6zM879 1704q91 -104 161 -164v-12q-86 -76 -161 -162q-64 75 -170 168q92 78 170 170zM473 1704q78 -94 160 -164v-12q-114 -108 -160 -162q-62 71 -168 168q90 77 168 170zM694 922l-131 -320h246z" />
    <glyph glyph-name="Aring" unicode="&#xc5;" 
d="M254 8q-100 0 -176 -41q-8 -2 -21 -10q-2 -10 -26 -20v16l-2 2v6q0 129 217 225l22 8q23 7 51 17l220 526q-53 57 -99 58q-70 0 -114 -82q-35 35 -35 73t16 64h-2q78 152 221 151q60 0 86 -22q2 0 2 -2l15 -8l-2 2l8 -4l2 2v2l6 12q0 2 2 6v4l2 4q0 57 -94 86h-4l-23 4
q-4 0 -10 3h-2q-49 0 -63 -9q-39 0 -121 -63v26q0 43 41 105q90 145 278 145h10q10 -2 31 -3.5t58 -16.5q68 -31 92 -90l336 -891q23 -63 28 -70q33 -47 82 -47q11 0 115 29l-191 -301q-129 39 -190 143q-39 67 -39 80q-4 4 -90 260h-416l-67 -166q27 -4 53 -8t55 -8
q60 -18 107 -49l32 41l52 -43l-215 -242q-74 74 -187 90q-43 6 -51 6zM864 1497q0 -88 -63 -119q-41 -18 -137 -18t-119 6q-59 23 -60 92q0 94 64 129q39 19 135 19t119 -9q61 -12 61 -100zM694 922l-131 -320h246zM666 1417q53 0 53 84q0 45 -35 45q-53 0 -53 -84
q0 -45 35 -45z" />
    <glyph glyph-name="Ccedilla" unicode="&#xc7;" horiz-adv-x="1239" 
d="M905 1020h-2q-46 0 -110 45q-6 4 -13.5 7t-13.5 7v-645q0 -96 -73 -164t-169 -67h-24q35 47 35 92v680l-89 -45l-28 61l516 281q70 -117 168 -117h2l2 2q16 0 88 33q-31 -72 -89 -121t-124 -53v-862q92 23 229 161l15 -8q-8 -55 -33 -90q-66 -111 -182.5 -190.5
t-249.5 -104.5l-60 -8h-4q106 -58 106 -148t-65 -149q-68 -66 -174 -68v33q57 18 57 72t-75 123q86 70 151 137h-18q-158 0 -262 45q-170 74 -281 234q-104 160 -104 343t88 353q87 158 233 268q78 51 193 103q36 0 51 10l6 -13q-332 -258 -332 -610l-2 -4q0 -229 154 -389
q98 -104 219 -139q66 -17 118 -17t146 23v899z" />
    <glyph glyph-name="Egrave" unicode="&#xc8;" horiz-adv-x="1165" 
d="M621 958v-301l65 68q32 31 88 42t88 11t70 -14t46 -19q6 -5 16 -9t16 -7l16 27l57 -35l-174 -275l-57 35l25 39q-109 61 -160 62l-4 -2h-15q-2 -2 -12 -2q-41 -2 -65 -46v-313h4l2 2q45 0 49 4h12q213 0 371 -75l16 32l68 -32l-139 -238q-246 88 -484 88t-344 -86
q0 44 29 80q29 45 119 104q66 46 106 62t115 45v803q0 37 41 100q100 164 280 168l8 8q8 -8 29 -8l4 -2h2q63 0 168 -64l15 29l61 -33l-149 -270l-64 33l25 39q-18 10 -38 23t-42 26v-2q-49 23 -78 23t-34 -1q-54 0 -107 -41q-45 -39 -45 -78zM236 78q0 18 14 57v346
q-14 0 -19 2h-4q-72 0 -75 -49l2 -2v-14q-8 -4 -33 -4t-53.5 33.5t-30.5 68.5l-2 2v29l2 2q1 127 99 157q50 16 75 15l4 2q25 0 33 2v6l-2 2v10q0 113 84 191q71 71 186 94l4 -16q-14 -6 -24.5 -34t-10.5 -46v-594q0 -131 -143 -221q-61 -33 -80 -35l-2 -2h-8l-2 -2h-14z
M639 1241q0 -78 -76 -142t-157 -65l-3 2h-4l-2 -2q-67 0 -149 20t-96 19q-53 0 -121 -69q0 125 80 204q86 78 180 78v4q101 -14 181 -34t86.5 -20.5t8.5 1.5q20 0 72 51v-47zM571 1364q-122 130 -389 244q66 74 107 186q70 -70 184 -139q95 -63 193 -101l4 -14
q-63 -72 -99 -176z" />
    <glyph glyph-name="Eacute" unicode="&#xc9;" horiz-adv-x="1165" 
d="M621 958v-301l65 68q32 31 88 42t88 11t70 -14t46 -19q6 -5 16 -9t16 -7l16 27l57 -35l-174 -275l-57 35l25 39q-109 61 -160 62l-4 -2h-15q-2 -2 -12 -2q-41 -2 -65 -46v-313h4l2 2q45 0 49 4h12q213 0 371 -75l16 32l68 -32l-139 -238q-246 88 -484 88t-344 -86
q0 44 29 80q29 45 119 104q66 46 106 62t115 45v803q0 37 41 100q100 164 280 168l8 6q12 -6 29 -6l4 -2h2q63 0 168 -64l15 29l61 -33l-149 -270l-64 33l25 39q-18 10 -38 23t-42 26v-2q-49 23 -78 23t-34 -1q-54 0 -107 -41q-45 -39 -45 -78zM236 78q0 18 14 57v346
q-14 0 -19 2h-4q-72 0 -75 -49l2 -2v-14q-8 -4 -33 -4t-53.5 33.5t-30.5 68.5l-2 2v29l2 2q1 127 99 157q50 16 75 15l4 2q25 0 33 2v6l-2 2v10q0 113 84 191q71 71 186 94l4 -16q-14 -6 -24.5 -34t-10.5 -46v-594q0 -131 -143 -221q-61 -33 -80 -35l-2 -2h-8l-2 -2h-14z
M639 1241q0 -78 -76 -142t-157 -65l-3 2h-4l-2 -2q-67 0 -149 20t-96 19q-51 0 -121 -69q0 125 80 204q82 74 180 78v4q101 -14 181 -34t86.5 -20.5t8.5 1.5q20 0 72 51v-47zM1034 1610l-4 -15q-81 -30 -198 -101t-181 -138q-39 115 -106 186q104 41 216 110t173 134
q37 -106 100 -176z" />
    <glyph glyph-name="Ecircumflex" unicode="&#xca;" horiz-adv-x="1165" 
d="M621 958v-301l65 68q32 31 88 42t88 11t70 -14t46 -19q6 -5 16 -9t16 -7l16 27l57 -35l-174 -275l-57 35l25 39q-109 61 -160 62l-4 -2h-15q-2 -2 -12 -2q-41 -2 -65 -46v-313h4l2 2q45 0 49 4h12q213 0 371 -75l16 32l68 -32l-139 -238q-246 88 -484 88t-344 -86
q0 44 29 80q29 45 119 104q66 46 106 62t115 45v803q0 37 41 100q100 164 280 168l8 6q6 -6 29 -6l4 -2h2q63 0 168 -64l15 29l61 -33l-149 -270l-64 33l25 39q-18 10 -38 23t-42 26v-2q-49 23 -78 23t-34 -1q-54 0 -107 -41q-45 -39 -45 -78zM236 78q0 18 14 57v346
q-14 0 -19 2h-4q-72 0 -75 -49l2 -2v-14q-8 -4 -33 -4t-53.5 33.5t-30.5 68.5l-2 2v29l2 2q1 127 99 157q50 16 75 15l4 2q25 0 33 2v6l-2 2v10q0 113 84 191q71 71 186 94l4 -16q-14 -6 -24.5 -34t-10.5 -46v-594q0 -131 -143 -221q-61 -33 -80 -35l-2 -2h-8l-2 -2h-14z
M639 1241q0 -78 -76 -142t-157 -65l-3 2h-4l-2 -2q-67 0 -149 20t-96 19q-51 0 -121 -69q0 125 80 204q82 74 180 78v4q101 -14 181 -34t86.5 -20.5t8.5 1.5q20 0 72 51v-47zM432 1368q-67 81 -115 131q98 74 291 279q187 -205 291 -279q-51 -51 -119 -133q-65 81 -172 168
q-86 -68 -176 -166z" />
    <glyph glyph-name="Edieresis" unicode="&#xcb;" horiz-adv-x="1165" 
d="M621 958v-301l65 68q32 31 88 42t88 11t70 -14t46 -19q6 -5 16 -9t16 -7l16 27l57 -35l-174 -275l-57 35l25 39q-109 59 -160 60l-4 -2h-15q-2 -2 -12 -3q-41 -2 -65 -43v-313h4l2 2q45 0 49 4h12q213 0 371 -75l16 32l68 -32l-139 -238q-246 88 -484 88t-344 -86
q0 44 29 80q29 45 119 104q66 46 106 62t115 45v801q0 39 41 102q98 162 280 166l8 8q8 -8 29 -8l4 -2h2q59 0 168 -62l15 27l61 -31l-149 -270l-64 33l25 37q-28 16 -80 51v-2q-49 23 -78 23t-34 -1q-57 0 -105 -41t-47 -78zM236 78q0 18 14 57v346q-14 0 -19 2h-4
q-72 0 -75 -49l2 -2v-14q-8 -4 -33 -4t-53.5 33.5t-30.5 68.5l-2 2v29l2 2q1 127 99 157q50 16 75 15l4 2q25 0 33 2v6l-2 2v10q0 113 84 191q69 69 186 92l4 -16q-14 -4 -24.5 -32t-10.5 -46v-596q0 -129 -143 -219q-61 -33 -80 -35l-2 -2h-8l-2 -2h-14zM639 1239
q0 -75 -77 -141t-156 -66l-3 2h-4l-2 -2q-75 0 -153 20t-92 21q-51 0 -121 -69q0 125 80 204q87 75 180 78v4q84 -12 172 -34t95 -22.5t9 1.5q23 0 72 53v-49zM836 1704q91 -104 161 -164v-12q-86 -76 -161 -162q-75 88 -170 168q81 67 170 170zM432 1704q78 -94 160 -164
v-12q-94 -85 -160 -162q-80 88 -168 168q75 64 168 170z" />
    <glyph glyph-name="Igrave" unicode="&#xcc;" horiz-adv-x="1003" 
d="M946 1171v-970q0 -55 -51 -119v2q-45 -57 -96 -88q-104 -72 -213 -78q-37 0 -39 -4h-8q-90 0 -195 31q-127 55 -158 55h-10q-66 0 -145 -68q0 116 98 195q69 57 141 57t129.5 -46t71.5 -56q4 -8 37 -35q41 -27 45 -29q47 -8 78 -8t58.5 30t27.5 71v933q0 8 10 33
q57 131 252 172l8 -14q-41 -41 -41 -64zM659 969v-578q0 -69 -87 -145t-171 -76q31 74 31 117v223q-14 27 -39 27l-2 2q-55 0 -59 -47l2 -3v-6l2 -2v-16q-117 18 -117 143q0 66 48 106t120 40h6l39 -6v122q0 20 35 68q18 31 81 70t111 51h3l2 2h6l8 -10q-19 -38 -19 -82z
M480 1042q-48 0 -60 4t-28.5 7.5t-62.5 16.5t-87 13t-84.5 -22.5t-63.5 -50.5v28q0 45 27 97q76 143 262 143q27 0 125 -23l2 -2h4q12 -7 74 -19t80 -13l4 2q50 0 116 37l13 -9q-25 -88 -104 -148.5t-217 -60.5zM180 1608q61 64 109 186q61 -66 182 -139q95 -63 193 -101
l4 -14q-63 -72 -99 -176q-59 66 -175 135t-214 109z" />
    <glyph glyph-name="Iacute" unicode="&#xcd;" horiz-adv-x="1003" 
d="M946 1171v-970q0 -61 -51 -119v2q-45 -57 -94 -88q-109 -72 -215 -78q-35 0 -37 -4h-10q-90 0 -195 31q-127 55 -156 55h-12q-66 0 -145 -68q0 115 98 195q69 57 133 57t166 -67q18 -18 43 -35q3 -8 39 -35t64 -32t59 -5t57.5 30t26.5 71v933q0 8 10 33q57 131 252 172
l8 -14q-41 -41 -41 -64zM434 870q0 22 26 60t95 80q54 38 107 49h2l2 2h6l8 -12q-20 -35 -21 -80h3l-3 -578q0 -69 -87 -145t-171 -76q33 72 33 117v223q-14 27 -41 27l-2 2q-55 0 -59 -47l2 -3v-6l2 -2v-16q-117 18 -117 143q0 66 48 106t120 40h6l41 -6v122zM480 1042
q-46 0 -60 4t-47 12t-63 16.5t-70 8.5t-83 -22.5t-63 -50.5v28q0 45 27 97q76 143 262 143q27 0 125 -23l2 -2h4q10 -6 70 -19t86 -13l4 2q49 0 117 37l12 -9q-27 -88 -105.5 -148.5t-217.5 -60.5zM1032 1610l-4 -15q-81 -30 -199 -102t-178 -137q-41 115 -106 186
q111 45 217 111t172 133q32 -104 98 -176z" />
    <glyph glyph-name="Icircumflex" unicode="&#xce;" horiz-adv-x="1003" 
d="M946 1171v-970q0 -55 -51 -119v2q-45 -57 -96 -88q-104 -72 -213 -78q-37 0 -39 -4h-8q-90 0 -195 31q-127 55 -158 55h-10q-66 0 -145 -68q0 116 98 195q69 57 141 57t129.5 -46t71.5 -56q4 -8 37 -35q41 -27 45 -29q47 -8 78 -8t58.5 30t27.5 71v933q0 8 10 33
q57 131 252 172l8 -14q-41 -41 -41 -64zM659 969v-578q0 -69 -87 -145t-171 -76q31 74 31 117v223q-14 27 -39 27l-2 2q-55 0 -59 -47l2 -3v-6l2 -2v-16q-117 18 -117 143q0 66 48 106t120 40h6l39 -6v122q0 20 35 68q18 31 81 70t111 51h3l2 2h6l8 -12q-19 -34 -19 -80z
M498 1042q-68 0 -82 4t-73 20t-101 17q-42 0 -85 -22.5t-63 -50.5v28q0 45 27 97q76 143 262 143q27 0 125 -23l2 -2h4q12 -7 74 -19t80 -13l4 2q50 0 116 37l13 -9q-25 -88 -104.5 -148.5t-198.5 -60.5zM315 1499q96 69 291 279q187 -205 291 -279q-51 -51 -119 -133
q-65 81 -172 168q-86 -68 -176 -166q-67 81 -115 131z" />
    <glyph glyph-name="Idieresis" unicode="&#xcf;" horiz-adv-x="1003" 
d="M946 1171v-970q0 -55 -51 -119v2q-45 -57 -96 -88q-104 -72 -213 -78q-37 0 -39 -4h-8q-90 0 -195 31q-127 55 -158 55h-10q-66 0 -145 -68q0 116 98 195q69 57 141 57t129.5 -46t71.5 -56q4 -8 37 -35q41 -27 45 -29q47 -8 78 -8t58.5 30t27.5 71v931q0 10 10 35
q59 133 252 170l8 -14q-41 -37 -41 -62zM432 870q0 20 35 68q20 33 86 70q63 41 109 51h2v2h6l8 -12q-19 -38 -19 -80h3l-3 -578q0 -69 -87 -145t-171 -76q31 74 31 117v223q-14 27 -39 27l-2 2q-55 0 -59 -47l2 -3v-6l2 -2v-16q-117 18 -117 143q0 66 48 106t120 40h6
l39 -6v122zM475 1040q-43 0 -114.5 21.5t-116.5 21.5t-88 -24.5t-62 -50.5v28q0 47 27 99q76 141 262 141q27 0 125 -23l2 -2h4q12 -7 75 -19t79 -11l4 2q55 -1 116 34l13 -8q-25 -86 -96.5 -142t-165.5 -65q-4 -4 -12.5 -3t-51.5 1zM834 1704q91 -104 161 -164v-12
q-86 -76 -161 -162q-75 88 -170 168q94 78 170 170zM430 1704q78 -94 160 -164v-12q-114 -108 -160 -162q-49 56 -166 168q83 71 166 170z" />
    <glyph glyph-name="Ntilde" unicode="&#xd1;" horiz-adv-x="1298" 
d="M1083 -86h-12q-100 0 -215 207h2q-20 31 -41.5 77t-54.5 108t-49 102q-104 47 -202 47t-144 -35v-197h2l4 2h12q127 0 250 -84l24 33l46 -45l-164 -217q-141 92 -251 92t-196 -41v2q-15 -10 -35 -18t-32 -13q59 217 262 279v276l-19 9h-4q-14 0 -23.5 -17.5t-9.5 -34.5
l3 -2v-24q-53 0 -90 44t-37 99q0 127 90 164q16 4 90 12v338h-4q-10 -8 -25.5 -11t-25.5 -6t-18 -3t-11 -4q-86 -43 -92 -113h-15l4 -4q-43 8 -43 104t78 179q76 88 188 88t189 -72q55 -51 135 -170q23 -41 54.5 -101.5t84.5 -156.5q38 -25 155 -20q26 1 38 8h8l17 4h4
l-2 239h-4l-5 -2h-10q-102 0 -145 41l-39 -33l-49 50l225 217q94 -76 176 -76q52 0 115 33l12 -8q-4 -59 -61 -115q-45 -51 -103 -80v2q-14 -10 -37 -16v-1137zM779 1366q-75 0 -141 24t-123 24q-56 0 -134 -52q34 99 41 209q68 27 126 27t144 -25t121 -25t158 51
q-44 -93 -62 -204l-4 -6q-51 -23 -126 -23zM539 528q74 0 127 -16q-32 64 -92 196t-93 197q-68 123 -114 146v-549q98 26 172 26zM932 711h-55q-29 0 -54 8l49 -111q76 -168 138 -256l-2 369q-20 -10 -76 -10z" />
    <glyph glyph-name="Ograve" unicode="&#xd2;" horiz-adv-x="1374" 
d="M680 -8q49 0 117 16v1092l-62 -31v-772q0 -25 -51 -78q-26 -33 -76 -67t-100 -35l-2 2h-4l-2 2h-8l14 37v2l4 35l2 4v794q-44 -22 -78 -22v80q78 23 363 137v98h75v-59q14 6 54 26h2l80 39v17q260 -160 331 -443q20 -76 21 -166q0 -225 -109 -424q-104 -205 -307 -303
q-124 -59 -274 -59q-199 0 -360 111q-279 192 -279 563q2 2 2 6v6l-2 2q0 288 219 524q143 158 299 158h18v-2h13l2 -14q-209 -106 -271 -361q-4 -16 -4 -47t6 -100v-27q0 -76 -32 -110v-17q0 -160 53 -319q98 -295 346 -295zM1124 539v69q0 90 -18 168q-4 0 -36 -12
t-66 -12h-50q-49 0 -82 12v-358l89 12h51l65 -8h3l30 -2l8 41q6 82 6 90zM612 1364q-113 126 -389 244q66 74 107 186q70 -70 184 -139q99 -65 195 -101l4 -14q-63 -68 -101 -176zM961 340q-37 0 -59 -7t-30 -7v-291q72 33 122 95t68.5 104t29.5 88q-16 4 -25 10
q-57 4 -68 8h-38zM971 819h26q39 0 86 31q-70 182 -196 295l-15 -4v-297q25 -25 99 -25z" />
    <glyph glyph-name="Oacute" unicode="&#xd3;" horiz-adv-x="1374" 
d="M680 -8q49 0 117 16v1092l-62 -31v-772q0 -25 -51 -78q-26 -33 -76 -67t-100 -35l-2 2h-4l-2 2h-8l14 37v2l4 35l2 4v794q-44 -22 -78 -22v78q110 36 363 139v98h75v-59q14 6 54 26h2l80 39v17q260 -160 331 -443q20 -76 21 -166q0 -225 -109 -424q-104 -205 -307 -303
q-124 -59 -274 -59q-199 0 -360 111q-279 192 -279 563q2 2 2 6v6l-2 2q0 288 219 524q141 156 299 156h31l2 -14q-209 -106 -271 -361q-4 -16 -4 -47t6 -100v-27q0 -76 -32 -110v-17q0 -160 53 -319q98 -295 346 -295zM1124 539v69q0 90 -18 168q-4 0 -36 -12t-66 -12h-50
q-49 0 -82 12v-358l89 12h51l65 -8h3l30 -2l8 41q6 82 6 90zM1137 1610l-4 -15q-91 -35 -203 -103t-176 -136q-39 115 -107 186q104 41 214 109t177 135q38 -108 99 -176zM961 340q-37 0 -59 -7t-30 -7v-291q72 33 122 95t68.5 104t29.5 88q-16 4 -25 10q-57 4 -68 8h-38z
M971 819h26q39 0 86 31q-70 182 -196 295l-15 -4v-297q25 -25 99 -25z" />
    <glyph glyph-name="Ocircumflex" unicode="&#xd4;" horiz-adv-x="1374" 
d="M680 -8q49 0 117 16v1092l-62 -31v-772q0 -25 -51 -78q-26 -33 -76 -67t-100 -35l-2 2h-4l-2 2h-8l14 37v2l4 35l2 4v794q-44 -22 -78 -22v78q110 36 363 139v98h75v-59q14 6 54 26h2l80 39v17q260 -160 331 -443q20 -76 21 -166q0 -225 -109 -424q-104 -205 -307 -303
q-124 -59 -274 -59q-199 0 -360 111q-279 192 -279 563q2 2 2 6v6l-2 2q0 288 219 524q141 156 299 156h18v-2h13l2 -12q-209 -106 -271 -361q-4 -16 -4 -47t6 -100v-27q0 -76 -32 -110v-17q0 -160 53 -319q98 -295 346 -295zM438 1499q89 65 293 279q187 -205 291 -279
q-63 -63 -117 -133q-71 84 -174 168q-100 -78 -176 -166q-55 66 -117 131zM1124 539v69q0 90 -18 168q-4 0 -36 -12t-66 -12h-50q-49 0 -82 12v-358l89 12h51l65 -8h3l30 -2l8 41q6 82 6 90zM961 340q-37 0 -59 -7t-30 -7v-291q72 33 122 95t68.5 104t29.5 88q-16 4 -25 10
q-57 4 -68 8h-38zM971 819h26q39 0 86 31q-70 182 -196 295l-15 -4v-297q25 -25 99 -25z" />
    <glyph glyph-name="Otilde" unicode="&#xd5;" horiz-adv-x="1374" 
d="M680 -8q49 0 117 16v1092l-62 -31v-772q0 -25 -51 -78q-26 -33 -76 -67t-100 -35l-2 2h-4l-2 2h-8l14 37v2l4 35l2 4v792q-44 -22 -78 -22v80q88 28 363 137v100h75v-61q14 6 54 26h2l2 2q31 9 78 39v17q260 -164 331 -443q20 -80 21 -166q0 -225 -109 -424
q-104 -205 -307 -303q-124 -59 -274 -59q-199 0 -360 111q-279 192 -279 563q2 2 2 6v6l-2 2q0 43 2 49q8 248 217 475q143 156 299 156h18v-2h13l2 -14q-209 -106 -271 -359q-4 -16 -4 -48t6 -101v-25q0 -76 -32 -110v-17q0 -160 53 -319q98 -295 346 -295zM820 1366
q-74 0 -141 24t-122 24t-137 -52q35 91 43 209q68 27 126 27t144 -25t121 -25t158 51q-44 -93 -62 -204l-4 -6q-52 -23 -126 -23zM1124 537v71q0 92 -18 166q-4 0 -36 -12t-66 -12h-50q-49 0 -82 12v-356l89 12h51l65 -8h3l30 -2l8 41q6 82 6 88zM961 338q-37 0 -59 -7
t-30 -7v-289q72 33 122 95t68.5 104t29.5 85q-14 3 -25 11q-57 4 -68 8h-38zM971 819h26q39 0 86 31q-72 184 -196 295l-15 -4v-297q25 -25 99 -25z" />
    <glyph glyph-name="Odieresis" unicode="&#xd6;" horiz-adv-x="1374" 
d="M680 -8q49 0 117 16v1092l-62 -31v-772q0 -25 -51 -78q-26 -33 -76 -67t-100 -35l-2 2h-4l-2 2h-8l14 37v2l4 35l2 4v794q-44 -22 -78 -22v78q110 36 363 139v98h75v-59q12 2 54 24h2l2 2q31 9 78 39v17q260 -160 331 -443q20 -80 21 -166q0 -225 -109 -424
q-104 -205 -307 -303q-124 -59 -274 -59q-199 0 -360 111q-279 192 -279 563q2 2 2 6v6l-2 2q0 288 219 524q143 156 299 156h18v-2h13l2 -14q-209 -102 -271 -359q-4 -16 -4 -48t6 -99v-27q0 -76 -32 -110v-17q0 -160 53 -319q98 -295 346 -295zM1124 539v69q0 90 -18 168
q-4 0 -36 -12t-66 -12h-50q-49 0 -82 12v-358l89 12h51l65 -8h3l30 -2l8 41q6 82 6 90zM918 1704q78 -90 161 -164v-12q-112 -106 -161 -162q-75 88 -170 168q94 78 170 170zM514 1704q78 -94 160 -164v-12q-94 -85 -160 -162q-80 88 -168 168q75 64 168 170zM961 338
q-39 0 -61 -6t-28 -6v-291q72 33 122 95t68.5 104t29.5 88q-16 4 -25 10q-57 2 -68 6h-38zM971 819h26q39 0 86 31q-70 182 -196 295l-15 -4v-297q25 -25 99 -25z" />
    <glyph glyph-name="multiply" unicode="&#xd7;" horiz-adv-x="1193" 
d="M1018 -2l-414 414l-416 -414l-82 80l416 416l-416 413l82 82l416 -414l414 414l82 -82l-414 -413l414 -414z" />
    <glyph glyph-name="Ugrave" unicode="&#xd9;" horiz-adv-x="1318" 
d="M151 -33h-20q43 156 215 221v328q-21 16 -37 16l-2 -2q-23 0 -41 -13t-22 -34h2v-20q-41 0 -70 33.5t-29 78.5q0 123 115 164q37 2 80 13h4v227q0 8 -16 37q-41 66 -124 66t-147 -89q-4 -4 -6 -8h2q-4 -7 -24 -29q0 96 42 182t102 114t126 28l8 4q111 -10 184 -94
t72 -203v-782q6 -4 15.5 -5t19.5 -5t19.5 -5.5t19.5 -5.5v1090h78v-168l305 194q47 -92 127 -122q19 -8 37 -8t67 24q0 -53 -31.5 -97t-74.5 -57v-825q0 -72 90 -72h8l4 2q12 0 15 2h4l4 3h8l2 2h6l2 2h23l-189 -238q-135 7 -204 215q-41 -29 -76.5 -52.5t-95.5 -66.5
t-107 -100q-181 108 -313 108q-59 0 -164 -43h-2q-10 -10 -11 -10zM182 1608q57 61 107 186q105 -105 220.5 -164.5t158.5 -75.5l4 -14q-63 -68 -101 -176q-112 125 -389 244zM809 467l-92 -14v-299q11 -14 28 -25l19 -12q138 91 149 98v236l-49 10zM842 791q35 0 71 18v231
q-43 12 -73 47l-123 -71v-209q10 -16 67 -16h58zM778 721q-24 0 -61 10v-207q27 0 51 11q29 0 31 2h24q6 -2 37 -2q16 -6 53 -11v211q-31 -14 -90 -14h-45z" />
    <glyph glyph-name="Uacute" unicode="&#xda;" horiz-adv-x="1318" 
d="M151 -33h-20q43 156 215 221v328q-21 16 -37 16l-2 -2q-23 0 -41 -13t-22 -34h2v-20q-41 0 -70 33.5t-29 78.5q0 123 115 164q37 2 80 13h4v227q0 8 -16 37q-41 66 -123 66t-148 -89q-4 -4 -6 -8h2q-4 -7 -24 -29q0 96 42 182t102 114t126 28l8 2q111 -6 184 -91t72 -204
v-782q6 -4 15.5 -5t19.5 -5t19.5 -5.5t19.5 -5.5v1090h78v-168l305 194q47 -92 127 -122q19 -8 37 -8t67 24q0 -53 -31.5 -97t-74.5 -57v-825q0 -72 90 -72h8l4 2q12 0 15 2h4l4 3h8l2 2h6l2 2h23l-189 -238q-135 7 -204 215q-41 -29 -76.5 -52.5t-95.5 -66.5t-107 -100
q-181 108 -313 108q-59 0 -164 -43h-2q-10 -10 -11 -10zM1116 1610l-4 -15q-81 -30 -198 -101t-181 -138q-39 115 -106 186q104 41 214 109t177 135q32 -104 98 -176zM913 451q-6 0 -24.5 4.5t-29.5 6.5t-27 4q-16 4 -115 -13v-299q11 -14 28 -25l19 -12q138 91 149 98v236z
M842 791q35 0 71 18v231q-43 12 -73 47l-123 -71v-209q10 -16 67 -16h58zM778 721q-24 0 -61 10v-207q27 0 51 11q29 0 31 2h24q6 -2 37 -2q16 -6 53 -11v211q-31 -14 -90 -14h-45z" />
    <glyph glyph-name="Ucircumflex" unicode="&#xdb;" horiz-adv-x="1318" 
d="M151 -33h-20q43 156 215 221v328q-21 16 -37 16l-2 -2q-23 0 -41 -13t-22 -34h2v-20q-41 0 -70 33.5t-29 78.5q0 123 115 164q37 2 80 13h4v227q0 8 -16 37q-41 66 -123 66t-148 -89q-4 -4 -6 -8h2q-4 -7 -24 -29q0 96 42 182.5t111 118.5q47 20 117 21l8 4
q111 -6 184 -91t72 -204v-782q6 -4 15.5 -5t19.5 -5t19.5 -5.5t19.5 -5.5v1090h78v-168l305 194q47 -92 127 -122q19 -8 37 -8t67 24q0 -53 -31.5 -97t-74.5 -57v-825q0 -72 90 -72h8l4 2q12 0 15 2h4l4 3h8l2 2h6l2 2h23l-189 -238q-135 7 -204 215q-41 -29 -76.5 -52.5
t-95.5 -66.5t-107 -100q-181 108 -313 108q-59 0 -164 -43h-2q-10 -10 -11 -10zM397 1499q89 65 293 279q187 -205 291 -279q-63 -63 -117 -133q-71 84 -174 168q-100 -78 -176 -166q-55 66 -117 131zM809 467l-92 -14v-299q11 -14 28 -25l19 -12q138 91 149 98v236l-49 10z
M842 791q35 0 71 18v231q-39 8 -73 47l-123 -71v-209q10 -16 67 -16h58zM778 721q-24 0 -61 10v-207q27 0 51 11q29 0 31 2h24q6 -2 37 -2q16 -6 53 -11v211q-31 -14 -90 -14h-45z" />
    <glyph glyph-name="Udieresis" unicode="&#xdc;" horiz-adv-x="1318" 
d="M151 -33h-20q43 156 215 221v328q-21 16 -37 16l-2 -2q-23 0 -41 -13t-22 -34h2v-20q-41 0 -70 33.5t-29 76.5q0 125 115 166q37 2 80 13h4v227q0 8 -16 35q-41 68 -123 68t-148 -89q-4 -4 -6 -8h2q-4 -7 -24 -29q0 97 41 181.5t102 112.5t127 28l8 4q111 -10 185 -92
q72 -84 71 -203v-782q6 -4 15.5 -5t19.5 -5t19.5 -5.5t19.5 -5.5v1088h78v-166l305 194q45 -92 127 -122q19 -8 37 -8t67 24q0 -53 -31.5 -97t-74.5 -59v-823q0 -72 90 -72h8l4 2q12 0 15 2h4l4 3h8l2 2h6l2 2h23l-189 -238q-121 6 -194 188q-4 8 -6 14.5t-4 12.5
q-41 -29 -76.5 -52.5t-95.5 -66.5t-107 -100q-181 108 -313 108q-59 0 -164 -43h-2q-10 -10 -11 -10zM809 467l-92 -14v-299q11 -14 28 -25l19 -14q60 42 149 100v236l-49 10zM877 1704q78 -90 161 -164v-12q-112 -106 -161 -162q-70 82 -168 168q98 85 168 170zM473 1704
q78 -94 160 -164v-12q-94 -85 -160 -162q-80 88 -168 168q75 64 168 170zM842 788q35 0 71 19v231q-41 12 -73 49l-123 -73v-209q10 -16 67 -17h58zM778 721q-24 0 -61 10v-207q27 0 51 11q29 0 31 2h24q6 -2 37 -2q16 -6 53 -11v211q-31 -14 -90 -14h-45z" />
    <glyph glyph-name="Yacute" unicode="&#xdd;" horiz-adv-x="1087" 
d="M1073 1169v-18l-2 -6v-19q-2 -2 -2 -6q-2 -51 -57 -82v-876q0 -123 -160 -197q-26 -6 -92 -28q-10 0 -27 -5q-313 0 -313 -116q0 -33 41 -33q5 -1 41 11t43.5 20t48.5 34q113 66 209 66h8q28 -9 66 -16q115 -43 114 -156q0 -61 -51 -105.5t-111 -44.5l-4 -2h-6
q-39 0 -82 19v63q53 -16 80 -16t48.5 14.5t21.5 34.5t-11.5 32.5t-25.5 12.5q-59 0 -160 -74h2l-6 -6h-4q-100 -82 -190 -82h-9l-4 2q-80 5 -136 57t-56 126q0 123 135 176q-80 22 -123 63q-70 63 -70 156v346q-12 16 -41 29q-57 -14 -57 -56l-2 -4v-18q-72 20 -72 135
t93 154q17 6 79 16v268q-7 12 -53 41h-2l-2 2h-8q-35 0 -63.5 -35.5t-28.5 -76.5q-41 43 -41 113t67 139q73 65 156 65q203 0 205 -268q23 12 55 41v227h74v-170q74 39 225 170v25q111 -162 191 -162l51 16l4 4h14zM1073 1612l-4 -15q-78 -29 -198 -101t-179 -138
q-41 115 -106 186q100 41 211 109t178 135q32 -104 98 -176zM791 100v279h-3q-46 6 -116 16q-4 -2 -5 -2l-79 -16v-367q6 -2 12 -2t16 -4h29q108 15 133 59q13 19 13 37zM784 1020q-43 0 -112 59q-25 -35 -84 -63v-230q14 -12 117 -12v-2h20q39 0 66 16v232h-7zM709 694h-45
q-39 0 -76 11v-254h2q2 0 8 2t32 5t42 7h6l113 -14v258q-24 -15 -82 -15zM514 963q-37 -25 -53 -33l2 -848q13 -46 51 -64v945z" />
    <glyph glyph-name="germandbls" unicode="&#xdf;" horiz-adv-x="833" 
d="M131 817h2l-2 201q-8 14 -12 35l-2 2v20q12 -4 21 -4h20q176 0 331 193q7 -7 39 -43q64 -68 131 -70l5 2h26q-16 -53 -68 -95t-129 -42t-120 45l-4 -4l-4 -2q-6 -6 -19 -8l-2 -213q89 23 182 104q72 -76 132 -76t98 62l49 -9q-84 -184 -244 -352q69 0 152 10
q90 -164 90 -311q0 -305 -352 -397l-17 41q180 74 180 276q0 113 -69 256q-33 -2 -59.5 -2t-49.5 -2l-45 -2l-16 31q169 160 250 274q-43 -23 -93 -22q-106 0 -188 67v-612q10 -8 35 -8q16 -10 33 -10q7 -7 53 -35l45 47l43 -41l-219 -211q-139 121 -256 121h-4l-4 -2
q-21 0 -45 -8q27 96 108 133v524q-23 -6 -76 -6l-4 -2h-14q0 33 2 43v55l-2 6v10l-2 5v36q30 -10 94 -10z" />
    <glyph glyph-name="agrave" unicode="&#xe0;" horiz-adv-x="811" 
d="M766 754q0 -88 -88 -140v-426q0 -41 28.5 -64.5t71.5 -25.5l2 2h23l-129 -182h-2l-2 -2h-8l-3 -2h-6l-2 -2h-16q-49 0 -100 46t-66 77l-139 -121h-13q-90 0 -172 53q-83 59 -102 135q-8 27 -8 78q0 162 186 289q-16 25 -137 160h2q-20 16 -63 61q143 51 235 160l10 -12
l2 -4q14 -14 58 -78v2q31 -41 67 -45l11 4q4 -4 8 -4q41 0 125 110q7 14 28 35v-19q0 -5 19 -24v2q55 -66 102 -65q20 0 78 20v-18zM412 92q33 0 49 12h2l2 2v492q-23 0 -62 41q-45 -55 -112 -55l-4 -2h-45q-17 0 -23 2l230 -262l-52 -48l-127 142q-38 -76 -38 -140t54 -124
t126 -60zM502 1116l4 -14q-61 -70 -98 -176q-63 66 -176 136t-212 105q66 74 107 187q45 -52 155 -124t220 -114z" />
    <glyph glyph-name="aacute" unicode="&#xe1;" horiz-adv-x="811" 
d="M637 -88q-62 0 -110 51t-58 72l-139 -121h-13q-90 0 -174 55t-100 133q-8 27 -8 78q0 162 186 289q-16 25 -137 160h2q-20 16 -63 61q143 51 235 160l10 -12l2 -4q14 -14 58 -78v2q31 -41 67 -45l11 4q4 -4 8 -4q41 0 125 110q7 14 28 35v-19q0 -5 19 -24v2
q55 -66 102 -65q20 0 78 20v-18q0 -88 -88 -140v-426q0 -41 29.5 -64.5t70.5 -25.5l2 2h23l-129 -182h-2l-2 -2h-8l-3 -2h-6l-2 -2h-14zM465 598q-23 0 -62 41q-45 -55 -112 -55l-4 -2h-45q-17 0 -23 2l230 -262l-52 -48l-127 142q-37 -80 -37 -123q-1 -81 53 -141t126 -60
q33 0 49 12h2l2 2v492zM328 1112q259 106 387 242q32 -104 98 -176l-2 -13q-139 -53 -242.5 -128.5t-134.5 -110.5q-41 109 -106 186z" />
    <glyph glyph-name="acircumflex" unicode="&#xe2;" horiz-adv-x="811" 
d="M766 754q0 -88 -88 -140v-426q0 -41 28.5 -64.5t71.5 -25.5l2 2h23l-129 -182h-2l-2 -2h-8l-3 -2h-6l-2 -2h-16q-49 0 -100 46t-66 77l-139 -121h-13q-90 0 -172 53q-83 59 -102 135q-8 27 -8 78q0 162 186 289q-16 25 -137 160h2q-20 16 -63 61q143 51 235 160l10 -12
l2 -4q14 -14 58 -78v2q31 -41 67 -45l11 4q4 -4 8 -4q41 0 125 110q7 14 28 35v-19q0 -5 19 -24v2q55 -66 102 -65q20 0 78 20v-18zM244 934q-39 48 -115 131q102 80 289 278q186 -202 280 -272l2 -12q-48 -48 -110 -125q-98 110 -172 170q-85 -65 -174 -170zM412 92
q33 0 49 12h2l2 2v492q-23 0 -62 41q-45 -55 -112 -55l-4 -2h-45q-17 0 -23 2l230 -262l-52 -48l-127 142q-38 -76 -38 -140t54 -124t126 -60z" />
    <glyph glyph-name="atilde" unicode="&#xe3;" horiz-adv-x="811" 
d="M766 752q0 -86 -88 -140v-424q0 -41 28.5 -64.5t71.5 -25.5l2 2h23l-129 -180h-2l-2 -2h-8l-3 -2h-6l-2 -2h-16q-51 0 -103 45q-51 51 -63 76l-139 -119h-13q-150 0 -216 84t-66 180q0 162 186 289q-11 17 -50 59q-38 42 -87 101h2q-20 16 -63 61q143 49 235 160l10 -12
l2 -4q10 -10 28.5 -37t29.5 -43v2q29 -39 67 -43l11 4q4 -4 8 -4q45 0 125 110q7 14 28 35v-19q0 -5 19 -24v2q55 -68 102 -67q20 0 78 20v-18zM541.5 958q-69.5 0 -139.5 26t-124 26t-135 -56q35 92 43 211q68 27 127 27t140 -27q88 -25 126 -25t150 54q-40 -91 -59 -205
l-4 -6q-55 -25 -124.5 -25zM412 92q33 0 49 12h2l2 2v490q-29 0 -62 43q-45 -57 -112 -57l-4 -2h-45q-17 0 -23 2l230 -260l-52 -48l-127 140q-38 -74 -38 -138t54 -124t126 -60z" />
    <glyph glyph-name="adieresis" unicode="&#xe4;" horiz-adv-x="811" 
d="M635 -86q-51 0 -103 45q-51 51 -63 76l-139 -119h-13q-150 0 -216 84t-66 180q0 162 186 289q-16 25 -137 160h2q-20 16 -63 61q147 53 235 160l10 -12l2 -4q14 -14 58 -78v2q31 -41 67 -45l11 4q4 -4 8 -4q41 0 125 110q7 14 28 35v-19q0 -5 19 -24v2q53 -66 102 -65
q13 0 78 18v-16q0 -88 -88 -142v-424q0 -41 28.5 -64.5t71.5 -25.5l2 2h23l-129 -182h-2l-2 -2h-17l-2 -2h-16zM412 92q33 0 49 12h2l2 2v490q-29 0 -62 43q-43 -55 -112 -55l-4 -2h-45q-17 0 -23 2l230 -262l-52 -48l-127 142q-38 -76 -38 -140t54 -124t126 -60zM602 1272
q78 -94 160 -164v-10q-101 -92 -160 -164q-97 106 -168 168q75 64 168 170zM199 1272q86 -98 159 -164v-10q-99 -94 -159 -164q-78 92 -164 168q74 67 164 170z" />
    <glyph glyph-name="aring" unicode="&#xe5;" horiz-adv-x="811" 
d="M766 752q0 -86 -88 -140v-424q0 -41 28.5 -64.5t71.5 -25.5l2 2h23l-129 -180h-2l-2 -2h-8l-3 -2h-6l-2 -2h-16q-51 0 -103 45q-51 51 -63 76l-139 -119h-13q-150 0 -216 84t-66 180q0 162 186 289q-11 17 -45 55t-92 105h2q-20 16 -63 61q147 53 235 160l10 -12l2 -4
q10 -10 28.5 -37t29.5 -43v2q31 -41 67 -43l11 4q4 -4 8 -4q45 0 125 110q7 14 28 35v-19q0 -5 19 -24v2q55 -68 102 -67q20 0 78 20v-18zM412 92q33 0 49 12h2l2 2v490q-29 0 -62 43q-45 -57 -112 -57l-4 -2h-45q-17 0 -23 2l230 -260l-52 -48l-127 140q-38 -74 -38 -138
t54 -124t126 -60zM616 1096q0 -82 -63 -117q-39 -21 -135 -21t-117 9q-61 14 -61 100t63 121q39 18 134 18t118 -6q61 -22 61 -104zM420 1020q51 0 51 82q0 45 -35 45q-51 0 -51 -84q0 -43 35 -43z" />
    <glyph glyph-name="ccedilla" unicode="&#xe7;" horiz-adv-x="655" 
d="M167 741q56 0 128 35t117 96q88 -117 161 -116q17 -1 60 30l12 -6q-4 -70 -58.5 -120t-136.5 -50t-122 60v-477q18 -10 47 -11l71 -26q44 -18 62 -39l53 65l49 -41l-186 -229q-141 119 -311 119q-57 0 -90 -37q20 98 92 147v469l-2 35q-6 14 -7 37q-10 25 -11 31t-5 24
v25l19 -19q2 -2 58 -2zM436 -235q0 -91 -64 -149t-171 -65v33q57 14 57 70t-74 123q75 64 150 139q102 -60 102 -151z" />
    <glyph glyph-name="egrave" unicode="&#xe8;" horiz-adv-x="692" 
d="M129 631q0 29 -35 104v29l19 -19h14l2 -2h6l4 -2h8q159 0 365 136q21 -79 73 -176t95 -156l-2 -13q-41 -20 -173 -98t-143.5 -84t-21.5 -14v-154q118 -19 221 -67l47 51l54 -47l-187 -207l-20 10q-43 23 -113.5 57.5t-222.5 34.5q-36 0 -99 -10q8 20 17 29v-2
q25 45 42 62t50 40v498zM420 1116l4 -14q-57 -70 -98 -176q-58 66 -166 131t-217 110q66 78 102 187q61 -66 162 -130t213 -108zM453 500q-25 30 -97 196l-16 -4v-262z" />
    <glyph glyph-name="eacute" unicode="&#xe9;" horiz-adv-x="692" 
d="M119 14q-36 0 -99 -10q8 20 17 29v-2q25 45 42 62t50 40v498q0 29 -35 104v29l19 -19h14l2 -2h4l6 -2h8q159 0 365 136q18 -72 72 -177q45 -76 94 -155l-2 -13q-49 -26 -176 -101t-138.5 -81t-21.5 -14v-154q111 -18 221 -67l47 51l51 -47l-184 -207l-20 10
q-45 23 -114 57.5t-222 34.5zM246 1112q263 107 387 242q37 -108 98 -176l-2 -15q-93 -35 -203 -103t-174 -134q-42 111 -106 186zM453 500q-25 30 -97 196l-16 -4v-262z" />
    <glyph glyph-name="ecircumflex" unicode="&#xea;" horiz-adv-x="692" 
d="M133 14q-51 0 -113 -10q8 20 17 29v-2q25 45 41 61t49 41v498q0 33 -33 104v29l19 -19h12l2 -2h6l6 -2h8q158 0 365 136q23 -85 73 -179t93 -153l-2 -13q-41 -20 -177 -100t-159 -96v-154q115 -18 219 -67l49 51l51 -47l-186 -207l-20 10q-43 23 -84 43.5t-113 34.5
t-123 14zM184 934q-78 92 -116 131q102 80 288 278q179 -194 279 -272l2 -12q-20 -23 -48 -53.5t-61 -71.5q-96 109 -172 170q-84 -63 -172 -170zM451 500q-22 33 -45 84q-29 53 -50 112l-16 -4v-262z" />
    <glyph glyph-name="edieresis" unicode="&#xeb;" horiz-adv-x="692" 
d="M129 631q0 29 -35 104v27l19 -17h14l2 -2h6l4 -2h8q164 0 365 136q31 -114 166 -332v-13q-41 -20 -173 -98t-143.5 -84t-21.5 -14v-154q118 -19 221 -67l47 51l54 -47l-187 -205l-20 8q-43 23 -113.5 57.5t-222.5 34.5q-36 0 -99 -10q8 20 17 29v-2q31 53 35 53
q16 20 57 49v498zM561 1272q78 -94 160 -164v-10q-101 -92 -160 -164q-92 100 -166 168q67 57 166 170zM158 1272q86 -98 159 -164v-10q-75 -71 -159 -164q-74 86 -162 168q83 75 162 170zM453 500q-25 30 -97 196l-16 -4v-264z" />
    <glyph glyph-name="igrave" unicode="&#xec;" horiz-adv-x="516" 
d="M383 741q16 0 68 29v-25q-1 -3 -1 -11t-10 -36t-36.5 -58t-55.5 -42v-438q0 -16 8 -33q16 -37 86 -37q27 0 54 10l8 -12l-176 -174q-72 4 -132 52t-61 114v516q-29 2 -49 35l-29 -15l-28 39l8 13l2 -2l4 4l4 2q47 47 111 100q42 28 78 64v24q84 -119 147 -119zM-299 1167
q60 64 106 187q59 -63 162 -130t211 -108l4 -14q-57 -70 -98 -176q-52 58 -165 130t-220 111z" />
    <glyph glyph-name="iacute" unicode="&#xed;" horiz-adv-x="514" 
d="M383 741q14 0 68 29v-25q-4 -10 -7 -28q-33 -92 -98 -119v-438q0 -12 10 -33q16 -37 84 -37q29 0 54 10l8 -12l-176 -174q-76 6 -134 54t-59 112v516q-27 2 -47 35l-29 -15l-28 39l8 13l2 -2q30 30 119 106q18 12 57 45l18 19v24q87 -119 150 -119zM246 1112
q263 107 387 242q37 -108 98 -176l-2 -15q-93 -35 -203 -103t-174 -134q-42 111 -106 186z" />
    <glyph glyph-name="icircumflex" unicode="&#xee;" horiz-adv-x="512" 
d="M381 741q14 0 68 29v-25q-4 -10 -7 -28q-33 -92 -98 -119v-438q0 -12 10 -33q18 -39 84 -39q23 0 54 12l8 -12l-176 -174q-70 4 -130 53t-61 113v516q-27 2 -47 35l-29 -15l-28 39l6 13l2 -2l196 170v24q84 -119 148 -119zM63 934q-82 97 -112 131q94 76 285 278
q181 -197 278 -272l2 -12q-37 -37 -110 -125q-90 104 -170 170q-84 -63 -173 -170z" />
    <glyph glyph-name="idieresis" unicode="&#xef;" horiz-adv-x="514" 
d="M383 741q7 0 68 27v-23q-4 -10 -7 -28q-33 -94 -98 -121v-436q0 -12 10 -33q18 -39 84 -39q25 0 56 12l6 -14l-176 -170q-72 0 -131 49t-60 115v514q-29 2 -49 37l-29 -17l-28 41l8 13l2 -2q17 17 119 104q14 9 57 47l18 19v24q86 -119 150 -119zM440 1272
q94 -107 160 -164v-10q-82 -74 -160 -164q-71 82 -166 168q83 71 166 170zM-125 1102q63 54 164 170q82 -98 160 -164v-10q-82 -74 -160 -164q-97 107 -164 168z" />
    <glyph glyph-name="ntilde" unicode="&#xf1;" horiz-adv-x="909" 
d="M743 766q25 0 105 37v-31l-2 -4v-20l-2 -5q0 -47 -56 -104v-479q0 -41 62 -41h8l2 2h17l2 2h26l-176 -213q-59 4 -111 45t-51 98v539q-8 0 -12 2h-4l-2 2l-8 4q-56 14 -88 59l-84 -67v-432q53 -21 77 -41q43 -25 72 -68l-190 -137q-111 104 -226 104h-6l-2 -2h-10l-2 -2
h-8l-2 -2h-21q14 80 96 127v463q-37 61 -102 62l-4 2h-10v16l209 207q125 -101 129 -205l241 201q88 -119 133 -119zM583 958q-71 0 -140 26t-123 26t-136 -56q35 92 43 211q66 27 126 27t141 -27q88 -25 126.5 -24.5t151.5 53.5q-41 -87 -61 -205l-4 -6q-53 -25 -124 -25z
" />
    <glyph glyph-name="ograve" unicode="&#xf2;" horiz-adv-x="856" 
d="M764 158q0 -63 53 -121q-76 16 -123 16q-238 0 -385 -143q-111 117 -198 117q-16 0 -41 -7l-41 -6q8 88 98 131l-2 539l-6 16q-2 0 -2 5l-4 4v4q-11 11 -11 17t-2 5v-2l-2 4v23q53 -17 117 -17q213 0 391 144q91 -131 172 -131q20 0 64 26v-26l-2 -4v-11l-2 -4
q0 -12 -26.5 -54.5t-47.5 -51.5v-473zM543 119v499q-72 2 -119 78q-35 -20 -78 -20v-498q16 -10 39 -10q13 -6 30 -12t70 -56l25 13q12 0 31 6h2zM-18 1167q59 66 104 187q59 -63 165 -131t212 -107l4 -14q-61 -70 -98 -176q-63 68 -185 139q-98 61 -202 102z" />
    <glyph glyph-name="oacute" unicode="&#xf3;" horiz-adv-x="856" 
d="M764 158q0 -68 53 -121q-76 16 -125 16q-236 0 -383 -143q-111 117 -198 117q-16 0 -41 -7l-41 -6q8 88 98 131l-2 539l-6 16q-2 0 -2 5l-4 4v4q-11 11 -11 17t-2 5v-2l-2 4v23q53 -17 117 -17q213 0 391 144q89 -131 170 -131q22 0 66 26v-26l-2 -4v-11l-2 -4
q0 -15 -29 -57t-45 -49v-473zM543 119v499q-72 2 -119 78q-35 -20 -78 -20v-498q16 -10 39 -10q13 -6 30 -12t70 -56l25 13q12 0 31 6h2zM854 1178l-2 -15q-94 -35 -205 -103t-174 -134q-37 109 -106 186q109 44 218 110t171 132q32 -104 98 -176z" />
    <glyph glyph-name="ocircumflex" unicode="&#xf4;" horiz-adv-x="856" 
d="M762 158q0 -66 55 -121q-78 16 -125 16q-236 0 -383 -143q-111 117 -198 117q-16 0 -41 -7l-41 -6q8 88 98 131l-2 539l-6 16q-2 0 -2 5l-4 4v4q-11 11 -11 17t-2 5v-2l-2 4v23q53 -17 117 -17q213 0 391 144q89 -131 170 -131q22 0 66 26v-26l-2 -4v-11l-2 -4
q0 -12 -8.5 -25.5t-20.5 -33.5q-31 -39 -47 -47v-473zM264 934q-14 17 -114 131q102 80 288 278q174 -189 281 -272l2 -12q-29 -29 -111 -125q-85 100 -172 170q-85 -65 -174 -170zM543 119v499q-72 2 -119 78q-35 -20 -78 -20v-498q16 -10 39 -10q13 -6 30 -12t70 -56
l25 13q12 0 31 6h2z" />
    <glyph glyph-name="otilde" unicode="&#xf5;" horiz-adv-x="856" 
d="M779 754q19 0 63 26v-26l-2 -4v-11l-2 -4q0 -12 -8.5 -24.5t-20.5 -32.5q-31 -39 -47 -47v-473q0 -66 55 -121q-78 16 -125 16q-236 0 -383 -141q-111 115 -198 115q-16 0 -41 -7l-41 -6q8 88 98 131l-2 539l-6 16q-2 0 -2 5l-4 4v4q-11 11 -11 15t-2 5v-2l-2 4v23
q53 -17 117 -17q213 0 391 144q35 -47 64.5 -79t59.5 -42t49 -10zM543 119v497q-70 2 -119 80q-35 -20 -78 -20v-498q16 -10 39 -10q13 -6 30 -12t70 -56l25 13q12 0 31 6h2zM582 958q-70 0 -139 26t-123 26t-136 -56q35 92 43 211q66 27 126 27t141 -27q88 -25 126 -25
t150 54q-40 -91 -59 -205l-4 -6q-55 -25 -125 -25z" />
    <glyph glyph-name="odieresis" unicode="&#xf6;" horiz-adv-x="856" 
d="M762 158q0 -66 55 -121q-78 16 -125 16q-236 0 -383 -141q-111 115 -198 115q-16 0 -41 -7l-41 -6q8 88 98 131l-2 539l-6 16q-2 0 -2 5l-4 4v4q-11 11 -11 17t-2 5v-2l-2 4v23q53 -17 117 -17q217 0 391 144q70 -102 123 -123q28 -8 50.5 -8t62.5 24v-24l-2 -4v-11
l-2 -4q0 -12 -8.5 -25.5t-20.5 -33.5q-31 -39 -47 -47v-473zM543 119v497q-70 2 -119 80q-35 -20 -78 -20v-498q16 -10 39 -10q13 -6 30 -12t70 -56l25 13q12 0 31 6h2zM643 1272q78 -94 160 -164v-10q-101 -92 -160 -164q-97 106 -168 168q75 64 168 170zM240 1272
q86 -98 159 -164v-10q-107 -101 -159 -164q-78 95 -166 168q71 61 166 170z" />
    <glyph glyph-name="divide" unicode="&#xf7;" horiz-adv-x="1196" 
d="M86 436v113h1038v-113h-1038zM605 51q-40 0 -67.5 26.5t-27.5 66.5t27.5 68t67.5 28t67.5 -28t27.5 -68t-27.5 -66.5t-67.5 -26.5zM606 745q-39 0 -67.5 28t-28.5 68t28.5 67.5t67.5 27.5t66.5 -27.5t27.5 -67.5t-27.5 -68t-66.5 -28z" />
    <glyph glyph-name="ugrave" unicode="&#xf9;" horiz-adv-x="948" 
d="M421 157q2 0 3 -1q-2 1 -3 1zM811 743q26 0 35 9h2l2 2h2l2 2h4l2 2h14q0 -123 -102 -154v-403q0 -106 98 -107h4l5 2q16 0 47 13l8 -15l-191 -182q-162 43 -182 176q-4 -2 -4.5 -4t-14.5 -10t-42.5 -29.5t-61.5 -45.5t-98 -89q-127 121 -215 121q-41 0 -68 -21
q18 104 90 142v442q-10 29 -43 43l2 -2q-10 4 -24 6t-22 5t-11 3h-18v17l198 204q139 -72 140 -186v-506q11 -9 35 -16t71 -43l4 4q8 4 9 6t6 4v-2l41 33l24 12l-4 436h-2q-16 8 -33 27l-41 -18l-39 57q66 20 222 176q106 -111 149 -111zM504 1116l4 -14q-59 -68 -100 -176
q-51 58 -166 130t-222 111q66 74 107 187q59 -62 165 -130t212 -108z" />
    <glyph glyph-name="uacute" unicode="&#xfa;" horiz-adv-x="948" 
d="M421 157q2 0 3 -1q-2 1 -3 1zM811 743q26 0 37 11h4l2 2h4l2 2h14q0 -123 -102 -154v-403q0 -106 98 -107h4l5 2q16 0 47 13l8 -15l-191 -182q-162 43 -182 176q-4 -2 -4.5 -4t-14.5 -10t-42.5 -29.5t-61.5 -45.5t-98 -89q-127 121 -215 121q-41 0 -68 -21q18 104 90 142
v442q-10 29 -43 43l2 -2q-10 4 -24 6t-22 5t-11 3h-18v17l198 204q139 -72 140 -186v-506q11 -9 35 -16t71 -43l4 4q8 4 9 6t6 4v-2l41 33l24 12l-4 436h-2q-16 8 -33 27l-41 -18l-39 57q66 20 222 176q106 -111 149 -111zM756 1354q33 -98 98 -176l-2 -15
q-144 -55 -245 -128.5t-132 -108.5q-41 109 -106 186q118 48 228 117t159 125z" />
    <glyph glyph-name="ucircumflex" unicode="&#xfb;" horiz-adv-x="948" 
d="M421 157q2 0 3 -1q-2 1 -3 1zM811 743q26 0 37 11h4l2 2h4l2 2h14q0 -127 -102 -154v-403q0 -106 98 -107h4l5 2q16 0 47 13l8 -15l-191 -182q-162 43 -182 176q-4 -2 -4.5 -4t-14.5 -10t-42.5 -29.5t-61.5 -45.5t-98 -89q-127 121 -215 121q-41 0 -68 -21q18 104 90 142
v442q-10 25 -43 43l2 -2q-10 4 -24 6t-22 5t-11 3h-18v17l198 204q139 -72 140 -186v-506q11 -9 35 -16t71 -43l4 4q8 4 9 6t6 4v-2l41 33l24 12l-4 436h-2q-16 8 -33 27l-41 -18l-39 57q66 20 222 176q106 -111 149 -111zM285 934q-39 48 -115 131q102 80 289 278
q190 -202 280 -272l2 -12q-20 -23 -47.5 -53.5t-62.5 -71.5q-85 100 -172 170q-85 -65 -174 -170z" />
    <glyph glyph-name="udieresis" unicode="&#xfc;" horiz-adv-x="948" 
d="M421 157q2 0 3 -1q-2 1 -3 1zM811 743q26 0 37 11h4l2 2h4l2 2h14q0 -125 -102 -156v-401q0 -106 98 -107h4l5 2q16 0 47 13l8 -15l-191 -180q-160 39 -182 172q-4 -2 -4.5 -3t-14.5 -9t-42.5 -29.5t-65.5 -48.5t-94 -84q-129 119 -215 119q-41 0 -68 -21q18 104 90 142
v440q-10 27 -43 45l2 -2q-10 4 -24 6t-22 5t-11 3h-18v17l198 204q139 -72 140 -186v-506q11 -9 35 -16t71 -43l4 4q8 4 9 6t6 4v-2l41 33l24 12l-4 434h-2l-4 2l-6 2q-15 15 -23 25l-41 -21l-39 60q66 20 222 176q104 -111 149 -111zM643 1272q88 -101 162 -164v-10
q-82 -71 -162 -164q-71 82 -166 168q83 71 166 170zM240 1272q86 -98 159 -164v-10q-107 -101 -159 -164q-78 95 -166 168q71 61 166 170z" />
    <glyph glyph-name="yacute" unicode="&#xfd;" horiz-adv-x="880" 
d="M772 74q0 -106 -178 -148q-48 -12 -70 -12h-26q-2 0 -19 -2q-217 -16 -217 -96q0 -31 39 -31q18 -1 123.5 57t181.5 58t127 -44t51 -108t-44 -102.5t-104 -38.5t-77 16v68q33 -18 64 -19h2l4 2h6q12 0 28.5 10.5t16.5 22.5q0 20 -27 21l-4 2h-2q-47 0 -134 -53t-116 -59
t-68 -7q-75 0 -129.5 50t-54.5 116v10h2q2 100 105 154q-41 18 -82 57t-41 88v535q0 47 -98 57v14l219 174q38 -28 67 -66t29 -59l2 -4v-12l2 -2v-82l307 207q63 -86 140 -86h4l2 2q35 0 63 22v-30l-2 -4v-11l-2 -2q-2 -29 -30.5 -66.5t-59.5 -49.5v-549zM547 41v561
q-8 2 -16.5 6t-18.5 8l-35 17l-125 -88v-492q0 -41 72 -55h8l17 -4h12l4 2q29 0 55.5 11t26.5 34zM854 1182l-2 -15q-94 -36 -195 -100q-121 -72 -184 -139q-37 109 -106 186q100 39 206 100q134 88 183 144q37 -113 98 -176z" />
    <glyph glyph-name="ydieresis" unicode="&#xff;" horiz-adv-x="880" 
d="M772 74q0 -106 -178 -148q-48 -12 -70 -12h-26q-2 0 -19 -2q-217 -16 -217 -96q0 -31 39 -31q18 -1 123.5 57t181.5 58t127 -44t51 -108t-44 -102.5t-104 -38.5t-77 16v68q37 -16 64 -17h2l4 2h6q12 0 28.5 9.5t16.5 21.5q0 20 -27 21l-4 2h-2q-39 0 -127 -47
q-89 -59 -121 -65t-70 -7q-75 0 -129.5 50t-54.5 116v10h2q2 100 105 154q-41 18 -82 57t-41 88v535q0 47 -98 57v14l219 174q38 -28 67 -66t29 -61l2 -4v-10l2 -2v-82l307 207q63 -86 140 -86h4l2 2q35 0 63 22v-32l-2 -4v-11l-2 -2q0 -25 -28 -62.5t-62 -51.5v-549z
M547 41v561q-8 2 -16.5 6t-18.5 8l-35 17l-125 -88v-492q0 -41 72 -55h8l17 -4h12l4 2q29 0 55.5 11t26.5 34zM643 1276q78 -94 160 -164v-12q-101 -92 -160 -164q-91 100 -168 170q88 75 168 170zM240 1276q84 -101 159 -164v-12q-107 -101 -159 -164q-76 92 -166 170
q74 61 166 170z" />
    <glyph glyph-name="Scaron" unicode="&#x160;" horiz-adv-x="1298" 
d="M480 1157q-6 0 -17 -2q-129 -31 -141 -127q0 -102 143 -131q57 -12 102 -12h75q30 0 38 2h27q14 22 47 65q0 -4 12 12.5t22 30.5v2q-37 72 -112 119t-158 47h-8q-24 -6 -30 -6zM690 635q70 0 76 4h12q160 0 221 -43q51 -31 60 -111q-2 -2 -7 -29q-28 -150 -155 -192
l18 27q2 4 3.5 9t5.5 14t4 22l2 4q0 90 -234 90h-106q-8 -2 -14 -2h-9q-4 -8 -11 -19.5t-17 -29.5q-123 -188 -263 -189q-8 0 -24 5q-104 33 -105 120l3 2q0 57 65 95q10 4 16.5 7t16.5 3l2 2h6q113 0 129 -102q10 10 24.5 22t22.5 22t12.5 18.5t12.5 18.5q0 6 12 23v4h-6
l-4 -2h-25q-94 0 -194 30t-136 97q-20 39 -20 98q0 96 70 164q31 -121 168 -160q86 -23 241 -22l2 2h4l15 33h-9q-313 0 -370 129q-23 45 -23 108q0 223 248 330q75 31 128 34t54 5h41q2 -2 33 -2h4q10 0 28.5 -4t49.5 -10q102 -29 195 -86l57 47l51 -47q-12 -18 -27 -27h3
l-37 -37q-10 -10 -57 -49.5t-140 -171.5q45 -4 115 -5t135 -22q223 -59 223 -235q0 -59 -30 -145t-181 -253q-52 -60 -111 -135.5t-98 -124.5q-4 -10 -4 -13t-3 -9l-17 -35q-279 115 -461 115q-8 0 -76 -13q-158 -29 -282 -110q78 208 391 293q62 14 114 17t80.5 5t65.5 -5
l68 -6q32 -3 165 -48q51 63 125 153t74 193q0 35 -35 82q-57 84 -225 84h-133q-10 -2 -11 -2h-16l-16 -35h20zM840 1780q62 -77 110 -125l-2 -13q-88 -68 -282 -274q-188 201 -291 281q72 78 117 131q78 -96 174 -172q95 81 174 172zM758 958l-4 -4l2 4h2z" />
    <glyph glyph-name="scaron" unicode="&#x161;" horiz-adv-x="817" 
d="M121 744v20q29 -29 115 -29q2 -2 20 -2q96 0 182 49q12 6 82 76q63 -74 122.5 -74t96.5 58l56 4l8 -10q-53 -164 -225 -342l192 4l-4 -27l-2 -2v-4l-4 -4v-4l-2 -4q0 -1 -8 -29v-350q0 -4 2 -6v-7l4 -8l2 -10l-2 4q-4 4 3.5 -8.5t18.5 -34.5l-30 4q-55 0 -68 8
q-31 0 -37 2h-12q-158 0 -256 -108l-60 61q-33 29 -63 29q-12 6 -35 6q-94 0 -131 -92h-59q33 143 168 311q14 14 23 24.5t22 20.5l-136 6l15 15l-2 -6q18 27 18 53l2 4l-2 358l-2 5q-2 2 -2 10l-6 14v2q-4 4 -4 13zM633 1346l110 -125l-2 -13q-92 -68 -280 -272
q-186 203 -291 278q27 25 54.5 59t62.5 73q94 -106 174 -172q74 60 172 172zM539 88v260l-4 4h-105l-106 -106q-14 -14 -33 -36t-45 -50q62 10 71 10q104 0 183 -92l28 10h11zM524 621q-55 0 -127 59q-6 -2 -8 -4h-8q-12 -6 -23 -6v-258h23q29 18 123 112q68 74 102 109
q-27 -12 -82 -12z" />
    <glyph glyph-name="Ydieresis" unicode="&#x178;" horiz-adv-x="1087" 
d="M1073 1169v-18l-2 -6v-19q-2 -2 -2 -6q-2 -51 -57 -82v-876q0 -123 -160 -197q-26 -6 -92 -28q-10 0 -27 -5q-313 0 -313 -116q0 -33 41 -33q5 -1 41 11t43.5 20t48.5 34q113 66 209 66h8q28 -9 66 -16q115 -43 114 -156q0 -61 -50 -103t-112 -45l-4 -2h-6q-37 0 -82 17
v63q53 -16 80 -16t48.5 14.5t21.5 34.5t-11.5 32.5t-25.5 12.5q-59 0 -160 -74h2l-6 -6h-4q-98 -80 -190 -80h-9l-4 2q-82 5 -137 56t-55 125q0 123 135 176q-80 22 -123 63q-70 63 -70 156v346q-12 16 -41 29q-57 -14 -57 -56l-2 -4v-18q-72 20 -72 135t93 154q21 7 79 16
v268q-7 12 -53 41h-2l-2 2h-8q-35 0 -63.5 -35.5t-28.5 -76.5q-41 43 -41 98q1 88 71 154t152 65q201 0 205 -268q23 12 55 41v227h74v-170q71 39 225 170v25q109 -162 191 -162l51 16l4 4h14zM791 100v279h-3q-46 6 -116 16q-4 -2 -5 -2l-79 -16v-367q6 -2 12 -2t16 -4h29
q108 15 133 59q13 19 13 37zM795 1708q84 -100 161 -166v-12q-86 -76 -161 -162q-75 88 -170 168q88 73 170 172zM784 1020q-43 0 -112 59q-25 -35 -84 -63v-230q14 -12 117 -12v-2h20q39 0 66 16v232h-7zM391 1708q84 -101 160 -166v-12q-94 -85 -160 -162q-80 88 -168 168
q80 68 168 172zM709 694h-45q-39 0 -76 11v-254h2q2 0 8 2t32 5t42 7h6l113 -14v258q-24 -15 -82 -15zM514 18v945q-10 -10 -16 -11q-10 -10 -37 -24l2 -846q13 -46 51 -64z" />
    <glyph glyph-name="florin" unicode="&#x192;" horiz-adv-x="784" 
d="M674 1075l-12 2q-51 82 -121 117l-43 -393h254l-115 -158h-158l-69 -682l-320 -305q-126 12 -248 106l166 203q54 -69 148 -94l84 772h-201l121 158h98l37 354l323 256q143 -40 240 -164z" />
    <glyph glyph-name="circumflex" unicode="&#x2c6;" horiz-adv-x="733" 
d="M88 1034q90 68 287 271q184 -192 278 -265l2 -12q-43 -43 -110 -123q-88 102 -170 166q-86 -61 -172 -166q-45 56 -115 129z" />
    <glyph glyph-name="tilde" unicode="&#x2dc;" horiz-adv-x="733" 
d="M480 903q-64 0 -142 23q-60 24 -119 24t-135 -51q33 89 41 199q70 24 125 24t139 -24t125 -24t152 50q-45 -92 -62 -192l-4 -6q-56 -23 -120 -23z" />
    <glyph glyph-name="emdash" unicode="&#x2014;" horiz-adv-x="1753" 
d="M1300 317h-923q-160 0 -328 -16q39 73 68 188q165 -10 352 -10h922q164 0 329 19q-44 -86 -69 -189q-132 8 -351 8z" />
    <glyph glyph-name="quoteleft" unicode="&#x2018;" horiz-adv-x="464" 
d="M96 1030q0 147 236 240l24 -27q-68 -57 -67 -100q0 -72 98 -111v-14q-81 -67 -162 -162q-129 86 -129 174z" />
    <glyph glyph-name="quoteright" unicode="&#x2019;" horiz-adv-x="464" 
d="M393 1098q0 -147 -233 -242l-23 31q66 47 66 98q0 66 -111 115q104 84 176 170q125 -88 125 -172z" />
    <glyph glyph-name="quotesinglbase" unicode="&#x201a;" horiz-adv-x="464" 
d="M393 66q0 -145 -233 -240l-23 31q66 47 66 98q0 63 -111 113q111 90 176 170q125 -88 125 -172z" />
    <glyph glyph-name="quotedblleft" unicode="&#x201c;" horiz-adv-x="831" 
d="M463 1030q0 147 244 240l24 -27q-70 -57 -69 -100q0 -68 104 -111v-14q-96 -76 -170 -162q-133 86 -133 174zM102 1030q0 147 242 240l27 -27q-72 -55 -72 -100q0 -70 102 -111v-14q-84 -67 -170 -162q-129 84 -129 174z" />
    <glyph glyph-name="quotedblright" unicode="&#x201d;" horiz-adv-x="831" 
d="M770 1098q0 -150 -242 -242l-26 29q70 51 69 100q0 66 -114 115q100 72 180 170q133 -86 133 -172zM406 1098q0 -150 -242 -242l-23 31q68 47 68 98q0 66 -115 115q109 84 182 170q130 -86 130 -172z" />
    <glyph glyph-name="quotedblbase" unicode="&#x201e;" horiz-adv-x="831" 
d="M770 66q0 -147 -242 -240l-26 29q70 51 69 100q0 63 -114 113q115 88 180 170q133 -86 133 -172zM406 66q0 -147 -242 -240l-23 31q68 47 68 98q0 63 -115 113q124 100 182 170q130 -86 130 -172z" />
    <glyph glyph-name="dagger" unicode="&#x2020;" horiz-adv-x="780" 
d="M520 997h291l-121 -166h-170v-425q0 -195 3 -262t14 -91l-279 -155q21 181 21 477v456h-289l116 166h173q-4 203 -17 279l270 156q-12 -164 -12 -435z" />
    <glyph glyph-name="bullet" unicode="&#x2022;" horiz-adv-x="1001" 
d="M507 1085q151 0 258 -106t107 -259t-106 -258t-258 -105.5t-258.5 106t-106.5 258t106.5 258t257.5 106.5z" />
    <glyph glyph-name="ellipsis" unicode="&#x2026;" horiz-adv-x="1064" 
d="M1057 66l-160 -152l-164 152l164 159zM702 66l-159 -152l-164 152l164 159zM346 66l-158 -152l-163 152l163 159z" />
    <glyph glyph-name="perthousand" unicode="&#x2030;" horiz-adv-x="1757" 
d="M532 1106v-23q0 -23 -17 -43t-38 -24v-447l17 -32v-11l2 -4v-22q-35 18 -107 18h-16l-56 -8q-61 -8 -122 -59q-37 37 -103 57h-6l-4 2h-4l-2 -2h-17q-8 -4 -12 -4l-2 -2h-14v16q0 16 20.5 42t40.5 36v440q-18 12 -18 43v6l2 2v25l18 -18h4l37 -9h8q150 0 234 84
q63 -74 102 -73h2l4 2l21 4h4l2 2h4l2 2h14zM1300 76v444q-16 12 -16 37v6l2 2v25l19 -19h4l2 -2h10l4 -2h4q2 -2 21 -2l4 -2h6q141 0 229 88q13 -13 33 -39v2q4 -4 14 -18.5t43 -20.5l2 -2h7q8 0 24 5h2l4 4h6l5 4h14v-25q0 -20 -17.5 -40.5t-37.5 -24.5v-443l8 -18l4 -4
q2 -4 2 -13l2 -4v-4l2 -2v-22q-47 14 -74 14h-86q-38 0 -82.5 -26.5t-54.5 -36.5q-4 2 -3 3t-6 6t-24.5 16t-34.5 24q-37 12 -53 12h-8v-2q-6 -2 -11.5 -2t-21.5 -8q-8 8 -7 18t22 43q20 12 36 27h-2q2 2 4 2zM791 76v444q-16 12 -17 37v6l2 2v25l19 -19h4l2 -2h10l4 -2h4
q2 -2 21 -2l4 -2h6q141 0 229 88q22 -22 35 -39v2q4 -4 14 -18.5t43 -20.5l3 -2h4q8 0 24 5h2l4 4h6l5 4h14v-25q0 -20 -17.5 -40.5t-37.5 -24.5v-443l8 -18l4 -4q2 -4 2 -13l2 -4v-4l2 -2v-22q-42 14 -72 14h-88q-41 0 -83 -26.5t-52 -36.5q-4 2 -3 3t-6 6t-25.5 16
t-35.5 24q-37 12 -53 12h-8v-2q-6 -2 -10 -2t-21 -8q-13 13 -3.5 30t16.5 31q20 12 36 27h-2q2 2 5 2zM1014 1110v6l-2 2v19l239 28l-16 -14q-4 -4 -11 -8t-20 -17l-4 -2v2q-102 -79 -172 -161l-684 -846v2q-57 -74 -61 -105q2 -2 20 -16l-246 -41q130 108 191 182l735 924
q33 33 35 43l-2 2h-2zM342 1008q-14 0 -40 17t-34 26h-12l-4 -2l-21 -2q-4 -2 -12 -3v-432q40 -20 92 -53l2 2h9l2 2h16l2 2v443zM1554 489q-35 0 -77 43h-4l-3 -2h-4l-2 -2h-9q-5 0 -25 -4v-432q71 -43 94 -51h6l2 2h8l2 2h10l2 2v442zM1044 489q-35 0 -77 43h-4v-2h-5
l-2 -2h-9q-5 0 -25 -4v-432q71 -43 92 -51h6l2 2h8l2 2h10l2 2v442z" />
    <glyph glyph-name="guilsinglleft" unicode="&#x2039;" horiz-adv-x="473" 
d="M352 82q-44 0 -102 -8q-2 33 -29 67l-151 211q-28 33 -47 47q4 6 17 19.5t30 32.5v-2l151 208q27 48 29 66q46 -4 87 -4t87 4h33q-44 -36 -86 -96l-168 -228l168 -227q27 -42 90 -98q-65 8 -109 8z" />
    <glyph glyph-name="guilsinglright" unicode="&#x203a;" horiz-adv-x="473" 
d="M138 82q-42 0 -111 -8q55 49 92 98l166 227l-166 228q-41 59 -88 96h35q46 -4 86 -4t86 4q4 -27 32 -66l150 -208q24 -33 45 -50q-10 -6 -45 -49v2l-150 -211q-27 -35 -32 -67q-58 8 -100 8z" />
    <glyph glyph-name="trademark" unicode="&#x2122;" horiz-adv-x="1937" 
d="M1534 637v532l-211 -532h-94l-211 532v-532h-107v770h129l236 -594l237 594h127v-770h-106zM819 1300h-264v-663h-109v663h-264v107h637v-107z" />
    <glyph glyph-name="minus" unicode="&#xe000;" horiz-adv-x="1196" 
d="M86 381v98h1038v-98h-1038z" />
    <glyph glyph-name="longs" unicode="&#xe001;" horiz-adv-x="657" 
d="M129 817h2l-2 205q-2 4 -5 14t-7 19v20q10 -4 13 -4h28q172 0 329 191q23 -23 39 -41q64 -68 131 -70l5 2h26q-16 -53 -68 -95t-129 -42t-120 45l-2 -4l-4 -2q-6 -6 -19 -8l-2 -3l2 -241l-2 -635q12 -6 33 -6q16 -10 33 -10l53 -35l45 47l43 -41l-219 -211
q-139 121 -254 121h-4l-4 -2q-21 0 -45 -8q25 96 106 133v524q-18 -6 -74 -6l-4 -2h-14q0 33 2 43v53l-2 6v12l-2 5v36q23 -10 92 -10z" />
    <glyph glyph-name="DST" unicode="&#xe002;" horiz-adv-x="2924" 
d="M2908 -76h-2875v1714h2875v-1714zM322 197q-80 0 -80 96v629q0 14 16 67q18 17 46 17t58 -31l193 -189q178 -172 180 -192q4 -94 4 -344q0 -66 38.5 -107t98.5 -41t101 41t41 101l2 1378h-98l4 -1374q0 -16 -14.5 -33.5t-28.5 -17.5q-47 0 -47 51v305q0 86 -62 147
l-364 359q-38 37 -102 37t-110 -35t-46 -96v-668q0 -188 170 -188h167q115 0 146 131h-96q-20 -32 -47 -43h-170zM2052 285v190q0 78 -50 124t-136 46h-502q-92 0 -92 84v193q0 94 92 94h498q51 0 92 -43h86q-31 139 -170 139h-502q-88 0 -139 -55.5t-51 -143.5v-180
q0 -82 49 -131t129 -49h510q100 0 100 -98v-154q0 -100 -133 -100h-510q-53 0 -53 51q0 45 49 45h543v90h-562q-55 0 -88.5 -40t-33.5 -99.5t37.5 -97t95.5 -37.5h575q76 0 121 47t45 125zM2458 1116q-225 0 -226 -186v-654q0 -129 129 -165v100q-37 27 -37 90v612
q0 98 78 99h297q57 0 99.5 40t42.5 97t-36 97t-89 40h-301q-82 0 -82 80v256h-101v-256q0 -172 228 -172h26q16 0 37 2l64 4q23 2 27 2h40q90 0 90 -45q0 -51 -88 -51h-22q-23 0 -43 2l-35 2q-66 6 -98 6z" />
  </font>
</defs>
</svg>
